<?xml version="1.0" encoding="UTF-8"?>
<svg id="Layer_1" xmlns="http://www.w3.org/2000/svg" version="1.1" viewBox="0 0 24 24">
  <!-- Generator: Adobe Illustrator 29.5.1, SVG Export Plug-In . SVG Version: 2.1.0 Build 141)  -->
  <defs>
    <style>
      .st0 {
        fill: #ac5fe0;
      }

      .st1 {
        fill: #ff857f;
      }

      .st2 {
        fill: #673986;
      }
    </style>
  </defs>
  <path class="st1" d="M15.5,15c-1.38,0-2.5,1.12-2.5,2.5v3c0,1.38,1.12,2.5,2.5,2.5s2.5-1.12,2.5-2.5v-3c0-1.38-1.12-2.5-2.5-2.5ZM17,20.5c0,.83-.67,1.5-1.5,1.5s-1.5-.67-1.5-1.5v-3c0-.83.67-1.5,1.5-1.5s1.5.67,1.5,1.5v3Z"/>
  <path class="st2" d="M19.5,1H4.5C2.02,1,0,3.02,0,5.5v13c0,2.48,2.02,4.5,4.5,4.5h2c.28,0,.5-.22.5-.5s-.22-.5-.5-.5h-2c-1.93,0-3.5-1.57-3.5-3.5v-9.5h22v3.5c0,.28.22.5.5.5s.5-.22.5-.5v-7c0-2.48-2.02-4.5-4.5-4.5ZM23,8H1v-2.5c0-1.93,1.57-3.5,3.5-3.5h15c1.93,0,3.5,1.57,3.5,3.5v2.5Z"/>
  <circle class="st0" cx="4" cy="5" r="1"/>
  <circle class="st0" cx="7" cy="5" r="1"/>
  <circle class="st0" cx="10" cy="5" r="1"/>
  <path class="st1" d="M24,15.5v7c0,.28-.22.5-.5.5s-.5-.22-.5-.5v-1.5h-2c-1.1,0-2-.9-2-2v-3.5c0-.28.22-.5.5-.5s.5.22.5.5v3.5c0,.55.45,1,1,1h2v-4.5c0-.28.22-.5.5-.5s.5.22.5.5Z"/>
  <path class="st1" d="M12,15.5v7c0,.28-.22.5-.5.5s-.5-.22-.5-.5v-1.5h-2c-1.1,0-2-.9-2-2v-3.5c0-.28.22-.5.5-.5s.5.22.5.5v3.5c0,.55.45,1,1,1h2v-4.5c0-.28.22-.5.5-.5s.5.22.5.5Z"/>
</svg>