<?xml version="1.0" encoding="UTF-8"?>
<svg id="Layer_1" xmlns="http://www.w3.org/2000/svg" version="1.1" viewBox="0 0 17.83 9.81">
  <!-- Generator: Adobe Illustrator 29.5.1, SVG Export Plug-In . SVG Version: 2.1.0 Build 141)  -->
  <defs>
    <style>
      .st0 {
        fill: #cc6a66;
      }
    </style>
  </defs>
  <path class="st0" d="M1.1,9.75c-.1,0-.24-.02-.42-.05-.18-.04-.33-.12-.47-.25s-.21-.32-.21-.58c0-.23.02-.55.04-.97.02-.41.03-.88.05-1.39.02-.52.04-1.05.07-1.6s.05-1.07.07-1.58c.02-.5.04-.95.05-1.34s.02-.68.02-.88c0-.28.11-.48.32-.61.22-.12.47-.19.77-.19.4,0,.67.09.82.28.14.18.22.39.23.62,0,.39,0,.86,0,1.39-.02.54-.04,1.09-.07,1.67s-.05,1.14-.08,1.67c-.03.66-.05,1.22-.05,1.66s-.03.83-.07,1.17c0,.11-.04.24-.1.39-.06.15-.16.28-.31.39-.14.11-.36.17-.65.17v.03Z"/>
  <path class="st0" d="M5.26,9.8c-.32,0-.62,0-.9-.02s-.56-.06-.84-.13c-.16-.04-.29-.15-.38-.32-.09-.18-.15-.38-.17-.61s0-.45.04-.67c.05-.22.13-.4.23-.55.11-.15.25-.22.41-.22.06,0,.22.01.46.04.24.03.61.04,1.1.04.28,0,.46-.04.53-.13.08-.09.07-.25-.03-.49-.13-.31-.24-.63-.34-.96-.1-.33-.18-.61-.24-.85-.05-.19-.02-.36.08-.5.1-.14.24-.26.42-.34.18-.08.36-.13.55-.13.17,0,.32.04.47.11.14.08.24.2.3.38.11.34.22.69.34,1.04.11.35.22.65.34.89.18.37.36.63.52.79s.35.23.56.23l.22.19v1.97l-.22.17c-.34,0-.66-.09-.96-.28s-.53-.43-.7-.73c-.16.37-.39.64-.7.82-.31.18-.67.27-1.1.27h0Z"/>
  <path class="st0" d="M8.72,9.72l-.22-.12v-2.03l.22-.18c.38,0,.76-.03,1.12-.09s.7-.14,1.02-.25c.32-.1.59-.23.83-.37s.43-.29.56-.46.2-.33.2-.5c0-.14-.03-.27-.09-.37-.06-.1-.14-.17-.25-.22-.1-.05-.23-.07-.38-.07-.2,0-.37.06-.51.18s-.21.28-.21.48c0,.22.1.44.29.64.2.2.47.38.81.53s.74.27,1.19.36c.45.09.93.13,1.45.13l.22.18v2.03l-.22.12c-.52,0-1.04-.08-1.57-.23-.52-.15-1.02-.36-1.5-.62-.48-.26-.9-.57-1.27-.92s-.67-.72-.88-1.12-.32-.8-.32-1.22c0-.52.11-.98.32-1.39.22-.41.51-.73.89-.96s.81-.35,1.3-.35.92.12,1.3.35.68.55.89.96c.22.41.32.87.32,1.39,0,.44-.1.86-.29,1.27s-.46.78-.8,1.13c-.34.34-.75.64-1.21.9-.46.26-.97.45-1.52.59s-1.12.21-1.72.21l.03.02ZM11.13,2.04c-.33.07-.59.02-.8-.17-.2-.18-.31-.46-.31-.83,0-.25.09-.43.26-.54.18-.11.38-.2.62-.28.33-.1.66-.16.98-.18s.59-.04.79-.04c.25,0,.45.06.59.19.15.13.25.29.3.48s.06.38.01.58-.14.35-.29.48-.35.19-.59.19c-.22,0-.47,0-.77.01s-.57.04-.82.1h.03Z"/>
  <path class="st0" d="M16.63,3.36c-.19,0-.35-.05-.47-.16-.12-.11-.21-.24-.26-.4-.06-.16-.08-.32-.08-.47,0-.34.09-.6.28-.8.18-.2.38-.3.58-.3.22,0,.42.06.58.17.16.12.29.26.38.43.09.17.14.34.14.5,0,.34-.11.6-.34.77s-.49.26-.8.26h-.01Z"/>
  <path class="st0" d="M14.77,9.72l-.22-.16v-2l.22-.17v2.33ZM14.77,9.72v-2.33c.23,0,.41-.08.54-.24s.22-.36.28-.61c.06-.25.1-.51.11-.79s.02-.54.02-.78c0-.26.09-.46.26-.6s.42-.22.74-.22c.39,0,.67.1.85.29.17.19.26.5.26.91,0,.58-.06,1.14-.18,1.67s-.3.99-.55,1.4c-.25.4-.56.72-.95.95-.38.23-.84.35-1.37.35h-.01Z"/>
</svg>