<?xml version="1.0" encoding="UTF-8"?>
<svg id="Layer_1" xmlns="http://www.w3.org/2000/svg" version="1.1" viewBox="0 0 56.96 16.22">
  <!-- Generator: Adobe Illustrator 29.5.1, SVG Export Plug-In . SVG Version: 2.1.0 Build 141)  -->
  <defs>
    <style>
      .st0 {
        fill: #cc6a66;
      }
    </style>
  </defs>
  <path class="st0" d="M12.74,1.72c.08.05.2.17.37.35.17.18.25.4.25.67,0,.35-.09.67-.27.97-.18.3-.39.54-.63.73-.24.19-.44.28-.6.28-.17,0-.34-.04-.5-.12-.16-.08-.29-.15-.4-.22-.41-.25-.79-.46-1.14-.61-.35-.15-.68-.27-1-.34-.32-.07-.65-.11-1-.11-.75,0-1.42.18-2.03.53-.61.35-1.08.9-1.43,1.63-.35.73-.52,1.66-.52,2.78,0,.88.12,1.67.36,2.36.24.69.62,1.24,1.15,1.64s1.2.6,2.03.6c.49,0,.94-.06,1.33-.17.39-.11.77-.28,1.12-.5.35-.22.72-.5,1.09-.83.12-.11.24-.2.35-.27s.24-.11.37-.11c.21,0,.46.09.74.26.28.17.53.4.75.68.22.28.33.58.33.9,0,.25-.07.5-.22.73-.15.23-.33.46-.56.69-.69.68-1.54,1.18-2.54,1.5s-1.99.48-2.98.48c-1.41,0-2.66-.31-3.73-.92s-1.91-1.5-2.52-2.66c-.61-1.16-.91-2.56-.91-4.2,0-1.27.2-2.41.59-3.42.39-1.01.94-1.88,1.64-2.6.7-.72,1.53-1.27,2.48-1.66.95-.39,1.99-.58,3.11-.58.52,0,1.07.05,1.64.15.57.1,1.14.26,1.71.48.57.22,1.09.52,1.57.91Z"/>
  <path class="st0" d="M17.9,14.8c-.15.45-.4.78-.75.98-.35.2-.91.3-1.67.3-.61,0-1.03-.12-1.26-.35-.23-.23-.34-.47-.34-.71,0-.29.05-.59.15-.89.1-.3.2-.58.29-.83.45-1.16.9-2.27,1.35-3.33s.88-2.07,1.31-3.04c.43-.97.85-1.89,1.28-2.77s.85-1.72,1.26-2.52c.29-.57.64-.99,1.03-1.25.39-.26.86-.39,1.39-.39.67,0,1.23.13,1.69.38s.77.59.93,1.02c.04.09.15.41.32.94s.39,1.21.66,2.02c.27.81.56,1.69.87,2.62.31.93.64,1.86.97,2.78.33.92.65,1.75.96,2.5.31.75.57,1.33.8,1.74.08.13.15.29.21.48s.09.33.09.44c0,.29-.18.57-.53.84-.35.27-.84.4-1.45.4-.43,0-.8-.05-1.12-.14-.32-.09-.58-.33-.78-.72-.4-.76-.76-1.64-1.09-2.63s-.63-2.02-.91-3.08c-.28-1.06-.56-2.08-.83-3.06-.27-.98-.55-1.84-.83-2.57-.65,1.39-1.22,2.73-1.71,4.03-.49,1.3-.91,2.52-1.27,3.67-.36,1.15-.7,2.19-1.02,3.14ZM18.26,12.2c-.2.01-.4-.15-.6-.5-.2-.35-.3-.73-.3-1.16,0-.36.1-.65.31-.86.21-.21.45-.38.74-.51.29-.13.56-.22.81-.27.35-.08.73-.14,1.15-.18.42-.04.88-.06,1.37-.05s1.01.06,1.56.15c.08.01.29,0,.63-.02.34-.03.73-.06,1.17-.1s.85-.08,1.22-.12c.37-.04.63-.07.78-.08.4-.04.73.05.98.26.25.21.38.55.38,1,0,.43-.15.78-.46,1.07-.31.29-.7.52-1.17.69-.47.17-.95.3-1.44.37-.49.07-.91.11-1.27.11-.76,0-1.44,0-2.05-.01-.61,0-1.21,0-1.8.03-.59.03-1.26.09-2.01.18Z"/>
  <path class="st0" d="M40.74,1.38c.13.07.25.18.35.33s.15.38.15.67c0,.37-.07.72-.22,1.05-.15.33-.33.59-.56.78-.23.19-.47.29-.72.29-.13,0-.26-.02-.38-.06s-.31-.11-.56-.22c-.4-.19-.81-.34-1.23-.47-.42-.13-.93-.19-1.53-.19-.29,0-.56.04-.81.11-.25.07-.45.18-.6.33-.15.15-.23.33-.23.54,0,.27.09.5.28.69s.47.38.85.57c.38.19.85.42,1.41.7,1.04.49,1.91.96,2.61,1.39.7.43,1.23.92,1.58,1.46.35.54.53,1.22.53,2.03,0,.57-.14,1.14-.41,1.71-.27.57-.67,1.08-1.18,1.54-.51.46-1.13.83-1.85,1.11-.72.28-1.53.42-2.44.42-.72,0-1.38-.06-1.97-.17s-1.11-.26-1.56-.45c-.45-.19-.82-.38-1.11-.58-.43-.31-.64-.66-.64-1.06,0-.29.09-.6.26-.91.17-.31.38-.58.61-.81.23-.23.44-.34.63-.34.11,0,.23.02.37.07.14.05.3.12.47.23.41.21.85.39,1.31.52.46.13,1,.2,1.61.2.47,0,.85-.05,1.16-.16.31-.11.54-.24.69-.41.15-.17.23-.35.23-.55,0-.29-.11-.55-.34-.76-.23-.21-.57-.43-1.04-.65-.47-.22-1.07-.47-1.82-.75-.56-.23-1.09-.48-1.59-.75-.5-.27-.94-.6-1.32-.97-.38-.37-.68-.8-.9-1.29-.22-.49-.33-1.05-.33-1.69,0-.91.24-1.7.71-2.39.47-.69,1.14-1.22,1.99-1.61.85-.39,1.85-.58,2.98-.58.83,0,1.65.1,2.47.31.82.21,1.52.46,2.09.77Z"/>
  <path class="st0" d="M44.04,1.42c.03-.31.18-.6.47-.87.29-.27.8-.41,1.53-.41s1.19.14,1.46.41c.27.27.38.56.34.87-.17,1.49-.28,2.96-.32,4.39-.04,1.43-.07,2.88-.09,4.33-.02,1.45-.09,2.96-.21,4.52-.01.2-.07.4-.18.59-.11.19-.29.35-.56.48-.27.13-.65.19-1.16.19-.71,0-1.21-.14-1.5-.42-.29-.28-.43-.59-.42-.92.11-1.52.17-2.99.19-4.41s.06-2.85.11-4.28c.05-1.43.17-2.92.34-4.47ZM45.48,9.82c-.15,0-.28-.06-.41-.17-.13-.11-.23-.34-.3-.68-.07-.34-.11-.84-.11-1.51,0-.31.09-.54.27-.69.18-.15.37-.24.57-.25.83-.03,1.56-.05,2.2-.07s1.27-.04,1.9-.05c.63-.01,1.33-.02,2.1-.03.77,0,1.71,0,2.8,0,.23,0,.42.08.58.23.16.15.24.38.24.67,0,.77-.09,1.33-.26,1.66s-.38.54-.62.61c-.24.07-.47.11-.68.11-.55-.01-1.17-.02-1.87-.02s-1.56.02-2.59.05c-1.03.03-2.3.08-3.82.15ZM53.14,1.6c.03-.32.17-.62.42-.89s.76-.41,1.52-.41c.71,0,1.2.14,1.49.41.29.27.42.57.39.89-.01.45-.03.87-.05,1.26s-.04.84-.07,1.36c-.07,1.85-.12,3.64-.15,5.37-.03,1.73-.05,3.5-.05,5.33,0,.29-.14.58-.42.85-.28.27-.77.41-1.48.41-.76,0-1.27-.14-1.53-.41-.26-.27-.39-.56-.39-.85,0-2.35.03-4.59.08-6.73.05-2.14.13-4.34.24-6.59Z"/>
</svg>