<svg width="33" height="32" viewBox="0 0 33 32" fill="none" xmlns="http://www.w3.org/2000/svg">
<path d="M32.4997 16C32.4997 7.16352 25.3363 0 16.5 0C7.66368 0 0.500305 7.16352 0.500305 16C0.500305 23.5034 5.66628 29.7997 12.6351 31.529V20.8896H9.33597V16H12.6351V13.8931C12.6351 8.44736 15.0997 5.9232 20.4461 5.9232C21.4599 5.9232 23.209 6.12224 23.9245 6.32064V10.7526C23.5469 10.713 22.8909 10.6931 22.0762 10.6931C19.4529 10.6931 18.4391 11.687 18.4391 14.2707V16H23.6653L22.7674 20.8896H18.4391V31.8829C26.3615 30.9261 32.4997 24.1805 32.4997 16Z" fill="#0866FF"/>
<path d="M22.7674 20.8896L23.6653 16H18.4391V14.2707C18.4391 11.687 19.4529 10.6931 22.0762 10.6931C22.8909 10.6931 23.5469 10.713 23.9245 10.7526V6.32064C23.209 6.12224 21.4599 5.9232 20.4461 5.9232C15.0997 5.9232 12.6351 8.44736 12.6351 13.8931V16H9.33597V20.8896H12.6351V31.529C13.8728 31.8362 15.1669 32 16.4993 32C17.1553 32 17.8024 31.9597 18.4379 31.8829V20.8896H22.7661H22.7674Z" fill="white"/>
</svg>
