<?xml version="1.0" encoding="UTF-8"?>
<svg id="Layer_1" xmlns="http://www.w3.org/2000/svg" xmlns:xlink="http://www.w3.org/1999/xlink" version="1.1" viewBox="0 0 32 32">
  <!-- Generator: Adobe Illustrator 29.5.1, SVG Export Plug-In . SVG Version: 2.1.0 Build 141)  -->
  <defs>
    <style>
      .st0 {
        fill: none;
      }

      .st1 {
        fill: #d4a2f0;
      }

      .st2 {
        fill: #fff;
      }

      .st3 {
        clip-path: url(#clippath);
      }
    </style>
    <clipPath id="clippath">
      <rect class="st0" width="32" height="32" rx="4" ry="4"/>
    </clipPath>
  </defs>
  <g class="st3">
    <g>
      <path class="st1" d="M32,0H0v32h32V0Z"/>
      <g>
        <path class="st2" d="M12.3,23.59c-.11.06-.2.12-.3.18-.03-.04-.05-.07-.07-.1-.31-.52-.76-.81-1.38-.76-.6.05-.99.42-1.2.96-.27.68-.2,1.33.31,1.89.67.73,1.75.6,2.24-.27.03-.05.06-.1.09-.17.09.06.19.09.25.16.03.03.01.13-.02.17-.34.49-.8.77-1.4.82-.96.07-1.84-.59-2.02-1.5-.19-.96.37-1.92,1.28-2.22.77-.25,1.68.06,2.14.74.02.03.04.06.06.11Z"/>
        <path class="st2" d="M15.25,25.15c0,.73-.59,1.32-1.32,1.32-.73,0-1.31-.59-1.31-1.33,0-.73.59-1.31,1.32-1.31.73,0,1.3.59,1.3,1.32h0ZM13.06,25.14c0,.34.11.64.36.87.29.28.71.28,1.01.02.48-.42.52-1.23.08-1.7-.32-.35-.81-.35-1.14,0-.22.23-.31.5-.31.82Z"/>
        <path class="st2" d="M22.86,25.52c.12.04.24.09.36.13-.06.13-.13.25-.22.36-.37.43-.98.58-1.5.36-.53-.21-.86-.75-.82-1.32.04-.57.44-1.05.98-1.19.59-.15,1.2.11,1.49.63.03.05.03.09,0,.14-.07.15-.18.26-.31.36-.24.18-.51.3-.79.4-.2.07-.39.16-.58.24-.06.03-.11.08-.17.12-.01.01-.02.05-.01.06.26.41.66.51,1.02.36.25-.11.4-.31.5-.56.01-.03.03-.06.04-.1h0ZM21.18,25.6c.05-.06.09-.12.14-.17.18-.19.41-.31.66-.39.27-.08.53-.2.77-.34.02-.01.04-.03.07-.05-.05-.08-.08-.16-.13-.23-.32-.46-.92-.51-1.28-.11-.23.25-.32.55-.31.88,0,.14.03.27.08.4h0Z"/>
        <path class="st2" d="M20.1,25.52c.12.04.24.09.36.13-.06.13-.13.25-.22.36-.37.43-.98.58-1.5.36-.53-.21-.86-.75-.82-1.32.04-.57.44-1.05.98-1.19.59-.15,1.2.11,1.49.63.03.05.03.09,0,.14-.07.15-.18.26-.31.36-.24.18-.51.3-.79.4-.2.07-.39.16-.58.24-.06.03-.11.08-.17.12-.01.01-.02.05-.01.06.26.41.66.51,1.02.36.25-.11.4-.31.5-.56.01-.03.03-.06.04-.1h0ZM18.42,25.6c.05-.06.09-.12.14-.17.18-.19.41-.31.66-.39.27-.08.53-.2.77-.34.02-.01.04-.03.07-.05-.05-.08-.08-.16-.13-.23-.32-.46-.92-.51-1.28-.11-.23.25-.32.55-.31.88,0,.14.03.27.08.4h0Z"/>
        <path class="st2" d="M17.77,24.02s-.06-.03-.1-.03c-.1,0-.21.01-.31,0-.04,0-.11-.07-.11-.11,0-.17-.01-.34,0-.5.03-.25.17-.37.41-.38.05,0,.08,0,.11-.03v-.19s-.06-.03-.1-.03c-.51-.02-.86.3-.86.82,0,.44,0,.88,0,1.32,0,.47,0,.94,0,1.41,0,.05.02.14.05.15.11.01.23.02.34,0,.03,0,.04-.14.04-.21,0-.61,0-1.21,0-1.82,0-.15.05-.2.19-.18.08,0,.17,0,.25,0,.04,0,.08,0,.1-.03v-.19h0Z"/>
        <path class="st2" d="M16.44,24s-.01,0-.02,0c-.11,0-.22.01-.33,0-.04,0-.1-.07-.11-.11-.01-.14,0-.28,0-.42.01-.29.15-.43.44-.46,0,0,.01,0,.02,0v-.23s0,0,0,0c-.49-.06-.88.29-.88.79,0,.44,0,.89,0,1.33,0,.48,0,.95,0,1.43,0,.05.03.14.05.14.11.01.23.02.34-.01.03,0,.04-.14.04-.21,0-.61,0-1.22,0-1.84,0-.12.04-.17.16-.16.09,0,.19.01.28,0,0,0,.01,0,.02,0v-.22h0Z"/>
        <path class="st2" d="M21.46,21.3s0,0,.01-.01c.29-.29.64-.53.97-.79.07-.05.16,0,.14.09-.02.08-.04.14-.06.17-.2.35-.32.79-.62,1.08-.11.11-.26.18-.41.18-.12,0-.23-.06-.33-.13-.79-.53-.82-1.52-.76-2.38.02-.28.07-.55.05-.85-.06.1-.11.21-.17.31-.35.6-.62,1.24-.99,1.82-.37.57-.88,1.35-1.68,1.25-.26-.03-.49-.16-.68-.33-.55-.52-.66-1.32-.61-2.03.16-2.43,1.09-4.7,2.32-6.78.07-.12.15-.24.25-.35.13-.15.3-.32.51-.35.14-.03.31.02.4.14.09.12.09.3.04.45-.11.33-.29.63-.44.95-.01.03-.04.07-.06.08-.34.09-.44.4-.56.66-.46,1.03-.85,2.08-1.12,3.18-.27,1.08-.5,2.2-.29,3.3.01.07.03.15.1.19.09.05.19-.01.27-.08.62-.52,1.01-1.24,1.38-1.94.42-.79.82-1.59,1.2-2.4,1.06-2.29,2.07-4.61,3.11-6.91.19-.42.41-.83.63-1.24.14-.27.47-.42.7-.29.26.14.3.39.24.66-.03.11-.08.22-.12.32-1.13,2.9-2.39,5.75-3.11,8.8-.13.53-.28,1.06-.37,1.6-.05.27-.09.54-.1.81-.01.25-.02.55.06.79,0,.03.02.06.05.07.03.01.07,0,.1-.03h0Z"/>
        <path class="st2" d="M28.17,9.53c-.34-.34-.39-.94-.1-1.32.38-.51,1.13-.56,1.63-.95-2.52-.09-5.07.26-7.47,1.04-.6.19-1.19.41-1.75.69-.27.13-.54.27-.79.44-.23.15-.49.29-.67.51-.05.06-.1.13-.12.21-.07.28.24.5.23.77-.27-.08-.5-.29-.59-.56-.21-.61.33-1.15.76-1.51.49-.41,1.05-.72,1.64-.97,1.6-.69,3.34-1.02,5.07-1.23,1.51-.18,3.05-.29,4.54,0,.17.03.33.07.47.17s.23.27.19.43c-.04.17-.2.27-.36.35-.69.33-1.49.41-2.14.8-.2.12-.39.27-.5.47-.11.2-.15.46-.04.67h0Z"/>
        <path class="st2" d="M17.48,7.48c.06-.2.12-.4.04-.61-.04-.1-.12-.18-.22-.22-.26-.08-.46.18-.58.41-.53,1.01-.84,2.07-1.2,3.15-.23.7-.41,1.36-.58,2.07-.15.64-.41,1.33-.7,1.91-.1.19-.25.34-.44.44-.71.38-1.76.92-2.56,1.3-.08.04-.17-.03-.15-.12.48-1.9.98-4.12.89-5.94-.04-.77-.16-1.56-.41-2.28-.17-.49-.53-.88-1.05-.99-.49-.1-1,.03-1.43.25-1.18.6-1.87,2.02-1.78,3.32.02.29.08.57.19.83.08.19.25.61.5.62,0-.01,0-.02,0-.03-.62-1.23-.27-2.8.86-3.62.12-.08.24-.16.37-.22.15-.08.32-.13.49-.17.71-.16.9.56.96,1.15.25,2.35-.16,4.64-.65,6.93-.03.14-.07.27-.13.4-.02.04-.04.07-.07.09-.05.03-.1.04-.16.05-.52.05-1.05-.15-1.43-.51-.04-.04-.09-.08-.14-.11-.16-.07-.15.11-.12.22.05.16.18.32.29.45.24.29.56.52.9.67.13.05.36.12.4.27.04.15-.1.37-.14.51-.07.24-.15.48-.23.71-.32.93-.69,1.85-1,2.79-.04.12-.01.27.09.35.17.14.34.02.46-.1.25-.27.42-.61.58-.95.4-.84.77-1.68,1.11-2.54.05-.13.11-.26.16-.39.15-.34.43-.61.76-.77.22-.1.43-.2.65-.3.62-.29,1.46-.7,2.16-1.03-.32,2.15-.29,4.28.37,6.38.04.13.18.23.31.2.19-.04.19-.28.17-.45-.26-1.91-.19-3.86.19-5.75.06-.28.14-.59.38-.76.13-.09.32-.18.27-.33-.02-.06-.08-.1-.12-.14-.22-.22-.15-.58-.07-.88.6-2.09,1.21-4.17,1.81-6.26h0Z"/>
        <path class="st2" d="M6.3,20.01l-3.14-3.14c-.48-.48-.48-1.26,0-1.74l3.14-3.14.55.55-3.14,3.14c-.18.18-.18.46,0,.64l3.14,3.14-.55.55Z"/>
        <path class="st2" d="M19.46,6.85l-3.14-3.14c-.18-.18-.46-.18-.64,0l-3.14,3.14-.55-.55,3.14-3.14c.48-.48,1.26-.48,1.74,0l3.14,3.14-.55.55h0Z"/>
        <path class="st2" d="M25.7,20.01l-.55-.55,3.14-3.14c.18-.18.18-.46,0-.64l-3.14-3.14.55-.55,3.14,3.14c.48.48.48,1.26,0,1.74l-3.14,3.14Z"/>
        <path class="st2" d="M16,29.21c-.33,0-.64-.13-.87-.36l-1.03-1.03.55-.55,1.03,1.03c.18.18.46.18.64,0l1.03-1.03.55.55-1.03,1.03c-.23.23-.54.36-.87.36Z"/>
      </g>
    </g>
  </g>
</svg>