<svg width="33" height="32" viewBox="0 0 33 32" fill="none" xmlns="http://www.w3.org/2000/svg">
<path d="M32.4033 9.40338C32.3255 7.70027 32.0549 6.53724 31.6595 5.51964C31.2577 4.45191 30.6281 3.4848 29.8142 2.68551C29.0153 1.87164 28.0478 1.24124 26.9801 0.839467C25.9625 0.444444 24.7994 0.174222 23.0963 0.0967111C21.39 0.0188445 20.8449 0 16.4997 0C12.1545 0 11.6094 0.0188444 9.90307 0.0963556C8.19996 0.174222 7.03694 0.4448 6.01934 0.840178C4.95161 1.24196 3.98449 1.87164 3.18521 2.68551C2.37134 3.48444 1.74094 4.45156 1.33916 5.51929C0.944139 6.53724 0.673917 7.70027 0.596406 9.40302C0.518184 11.1097 0.499695 11.6548 0.499695 16C0.499695 20.3456 0.518184 20.8907 0.596406 22.597C0.673917 24.2997 0.944495 25.4631 1.34023 26.4807C1.74201 27.5481 2.37169 28.5156 3.18556 29.3145C3.98449 30.1284 4.95196 30.7584 6.01969 31.1598C7.03729 31.5556 8.20032 31.8258 9.90343 31.9036C11.6097 31.9815 12.1548 32 16.5001 32C20.8453 32 21.3904 31.9819 23.0967 31.9036C24.7998 31.8258 25.9628 31.5556 26.9804 31.1598C29.1297 30.3289 30.8286 28.6297 31.6595 26.4807C32.0553 25.4628 32.3255 24.2997 32.4033 22.597C32.4812 20.8903 32.4997 20.3452 32.4997 16C32.4997 11.6548 32.4812 11.1097 32.4033 9.40338ZM29.5233 22.4658C29.4522 24.026 29.1916 24.8729 28.9726 25.4368C28.4343 26.8324 27.3313 27.9349 25.9361 28.4732C25.3726 28.6923 24.5253 28.9529 22.9651 29.024C21.2784 29.1012 20.7721 29.1172 16.4997 29.1172C12.227 29.1172 11.721 29.1012 10.0343 29.024C8.47445 28.9529 7.62716 28.6923 7.06325 28.4732C6.36849 28.2165 5.73987 27.8076 5.22361 27.2761C4.69205 26.7598 4.28316 26.1316 4.02645 25.4364C3.80743 24.8729 3.54681 24.0256 3.47569 22.4654C3.39889 20.7783 3.38254 20.2724 3.38254 16C3.38254 11.7276 3.39889 11.2217 3.47569 9.53458C3.54716 7.9744 3.80743 7.12747 4.02645 6.56356C4.28316 5.86844 4.69205 5.23982 5.22361 4.72356C5.73987 4.192 6.36849 3.78311 7.06361 3.52676C7.62716 3.30738 8.47445 3.04711 10.0346 2.97564C11.7214 2.8992 12.2273 2.88284 16.4997 2.88284C20.7721 2.88284 21.2777 2.8992 22.9648 2.97636C24.5249 3.04747 25.3719 3.30809 25.9358 3.52711C26.6305 3.78382 27.2592 4.19271 27.7754 4.72391C28.307 5.24018 28.7159 5.8688 28.9722 6.56391C29.1916 7.12747 29.4522 7.97476 29.5233 9.53493C29.6001 11.222 29.6165 11.728 29.6165 16.0004C29.6165 20.2727 29.6005 20.7783 29.5233 22.4658Z" fill="url(#paint0_linear_24_68)"/>
<path d="M16.4993 7.78383C11.9617 7.78383 8.28316 11.4624 8.28316 16C8.28316 20.5376 11.9617 24.2162 16.4993 24.2162C21.0373 24.2162 24.7155 20.5376 24.7155 16C24.7155 11.4624 21.0373 7.78383 16.4993 7.78383ZM16.4993 21.3333C13.5543 21.333 11.1664 18.9454 11.1664 16C11.1664 13.0546 13.5539 10.6667 16.4997 10.6667C19.4451 10.667 21.833 13.0546 21.833 16C21.833 18.9454 19.4451 21.3333 16.4993 21.3333Z" fill="url(#paint1_linear_24_68)"/>
<path d="M26.9605 7.4592C26.9605 8.51946 26.1008 9.3792 25.0405 9.3792C23.9799 9.3792 23.1205 8.51946 23.1205 7.4592C23.1205 6.39858 23.9802 5.5392 25.0405 5.5392C26.1008 5.5392 26.9605 6.39893 26.9605 7.4592Z" fill="url(#paint2_linear_24_68)"/>
<defs>
<linearGradient id="paint0_linear_24_68" x1="3.18514" y1="29.3145" x2="29.8143" y2="2.68533" gradientUnits="userSpaceOnUse">
<stop stop-color="#FFD600"/>
<stop offset="0.5" stop-color="#FF0100"/>
<stop offset="1" stop-color="#D800B9"/>
</linearGradient>
<linearGradient id="paint1_linear_24_68" x1="5.18642" y1="27.3138" x2="27.8138" y2="4.68638" gradientUnits="userSpaceOnUse">
<stop stop-color="#FF6400"/>
<stop offset="0.5" stop-color="#FF0100"/>
<stop offset="1" stop-color="#FD0056"/>
</linearGradient>
<linearGradient id="paint2_linear_24_68" x1="23.6827" y1="8.81679" x2="26.398" y2="6.10141" gradientUnits="userSpaceOnUse">
<stop stop-color="#F30072"/>
<stop offset="1" stop-color="#E50097"/>
</linearGradient>
</defs>
</svg>
