<?xml version="1.0" encoding="UTF-8"?>
<svg id="Layer_1" xmlns="http://www.w3.org/2000/svg" version="1.1" viewBox="0 0 718 88">
  <!-- Generator: Adobe Illustrator 29.5.1, SVG Export Plug-In . SVG Version: 2.1.0 Build 141)  -->
  <defs>
    <style>
      .st0 {
        fill: #500b75;
      }

      .st1 {
        fill: #fb6518;
      }

      .st2 {
        fill: #8b4b9f;
      }

      .st3 {
        fill: #fd6e66;
      }
    </style>
  </defs>
  <path d="M438.9,61.8l-.1-.1.1.1Z"/>
  <path class="st2" d="M543.6,29.5c-4.8,19.9-23.9,35.4-44.5,35.7-12,.2-24,.1-36,.1h-2.9c-2.4,7.3-4.8,14.5-7.2,21.7h-21.7c.2-.8.3-1.4.5-2,1.9-6,11-30.8,15-42.2,4.3,0,14.7.1,15.1.1h44.6c7.1,0,12.9-4.7,14.4-11.4,1-4.4-1.4-7.8-5.8-8.3-1.2-.1-2.3-.1-3.5-.1h-59.5c7.5-7.7,14.6-15,21.9-22.5h2.2c13.9,0,27.9-.1,41.8.1,3.5,0,7,.3,10.4,1.2,12.5,3.2,18.5,14.2,15.2,27.6Z"/>
  <path class="st2" d="M593.3.4c2.8.8,5.2,3,6.7,5.4,1.8,3,2.5,6.3,3.4,9.7,1,3.7,1.8,7.5,2.8,11.3,1.8,7.5,3.7,15,5.6,22.5,3,12,6,24,8.9,36,.1.4.2.9.3,1.6h-82.9c7-7.6,13.7-14.9,20.5-22.3h29.5c-2.7-10.3-5.3-20.4-8.1-31-16.6,18-33,35.7-49.4,53.4h-27.1c.9-1,1.5-1.8,2.2-2.5,21.8-23.8,43.7-47.5,65.4-71.3,2.9-3.2,6-6.2,9.5-8.7,3.1-2.2,6.7-4.5,10.7-4.5.6.1,1.3.2,2,.4Z"/>
  <path class="st2" d="M611,.7h28c4.9,11.6,9.8,23.1,14.9,35,12.2-11.8,24.1-23.4,36.1-35h27.3c.2.2.4.5.6.7-.7.5-1.6.9-2.2,1.5-19,18-38,36-56.9,54-1,1-1.9,2.3-2.3,3.6-3,8.8-5.8,17.6-8.7,26.4h-21.9c.3-1,.5-1.8.8-2.7,2.6-7.9,5.1-15.8,7.8-23.7.6-1.7.5-3.1-.2-4.7-7.5-17.6-14.9-35.2-22.4-52.9-.3-.5-.5-1.2-.9-2.2Z"/>
  <path class="st0" d="M370.3,59.3c.7,2.8,5.2,18.9,7.5,27-.2.2-.5.4-.7.6h-83c7-7.6,13.6-14.9,20.4-22.3h29.6c-2.7-10.4-5.4-20.5-8.2-31.1-16.7,18-33.1,35.8-49.4,53.4h-26.9c.5-.7.8-1.2,1.2-1.6,23.2-25.3,46.4-50.7,69.7-75.9,2.2-2.4,4.7-4.4,7.4-6,4.4-2.6,10-4.9,14.7-1.5,3.7,2.6,5.3,7.1,6.2,11.3,1.2,5.5,2.7,10.9,4,16.4,2.6,9.9,5.1,19.8,7.5,29.7Z"/>
  <path class="st0" d="M105.7,87.7c-4.3-1.3-6.9-4.3-9.3-8-8-12.6-16.3-25.1-24.4-37.6-.5-.7-1-1.4-1.7-2.4-5.2,16-10.4,31.6-15.5,47.3h-21.8c.2-.7.3-1.4.5-2,7.9-24.2,15.8-48.5,23.9-72.7.9-2.8,2.6-5.6,4.6-7.7,5.6-6,14-5.1,18.5,1.8,8.6,13.1,17.1,26.2,25.6,39.3.4.7.9,1.4,1.6,2.4,5.3-16.1,10.4-31.7,15.6-47.4h21.8c-.2.9-.4,1.7-.7,2.5-7.9,24.1-15.8,48.2-23.7,72.2-.2.7-.5,1.5-.8,2.2-1.8,4.7-4.7,8.4-9.6,10.1h-4.6Z"/>
  <path class="st0" d="M0,86.3c2.2-6.4,4.4-12.7,6.5-19.1C13.6,45.7,20.6,24.2,27.6,2.7c.2-.6.4-1.2.7-1.9h21.9c-9.5,28.9-18.9,57.6-28.3,86.5H0v-1Z"/>
  <path class="st0" d="M241.9.6c-7.5,7.8-14.5,15.1-21.5,22.5h-49.9c-3.9,0-5.6,2-5.3,6.2,1.1.2,2.4.6,3.7.6,11.3,0,22.6-.1,33.9.1,3.7.1,7.5.4,11,1.5,10.2,3.1,14.8,12.4,12.2,23.7-4.2,18.3-20.8,31.7-40,31.9-21.2.2-42.4.1-63.6.1-.4,0-.7-.1-1.8-.1,7.3-7.6,14.3-14.9,21.3-22.2h10.9c13,0,26,.1,39-.1,2.9,0,5.8-1,8.5-2,1.4-.5,2.7-1.9,3.5-3.3,1.7-2.7.8-5.1-2.1-6.2-1.8-.6-3.8-.9-5.7-.9-11.7-.1-23.4,0-35.1-.1-2.9,0-5.8-.3-8.5-1-10.1-2.5-15.2-10.9-12.9-21.1,3.5-15.9,18.2-28.6,34.6-29.3,9.6-.4,19.3-.2,29-.2h35.5c.9-.1,1.8-.1,3.3-.1Z"/>
  <path class="st0" d="M255.4,87h-22c7-21.4,13.9-42.5,20.9-63.9h-29.2c7.4-7.8,14.4-15,21.4-22.4h72.5c-7.3,7.6-14.4,14.9-21.5,22.3h-21.2c-6.9,21.4-13.9,42.6-20.9,64Z"/>
  <path class="st3" d="M427.7,43.2c-.6.4-1.2.8-1.8,1.3-15.4,13.5-32.9,29-48.4,42.6h-23.1l49.9-44.2c-.6-1.1-1.1-1.9-1.5-2.7-7.6-13.3-15.2-26.6-22.7-39.9h23.4c.3.8.6,1.6,1,2.3,7.2,12.6,14.5,25.3,21.7,37.9.4.7.8,1.4,1.5,2.7Z"/>
  <path class="st1" d="M460.8,42.6l-48.9,43.7-.8.7c-7,.1-16.2,0-22.9-.5,16.5-14.5,33-29.1,49.5-43.7-8.2-14.3-16.3-28.5-24.4-42.6h23.4c.3.6.5,1.3.9,1.9,7.4,13,14.5,25.3,21.8,38.3.4.6,0,.1,1.4,2.2Z"/>
</svg>