<?xml version="1.0" encoding="UTF-8"?>
<svg id="Layer_1" xmlns="http://www.w3.org/2000/svg" xmlns:xlink="http://www.w3.org/1999/xlink" version="1.1" viewBox="0 0 32 32">
  <!-- Generator: Adobe Illustrator 29.5.1, SVG Export Plug-In . SVG Version: 2.1.0 Build 141)  -->
  <defs>
    <style>
      .st0 {
        fill: url(#linear-gradient2);
      }

      .st1 {
        fill: url(#linear-gradient1);
      }

      .st2 {
        fill: url(#linear-gradient);
      }
    </style>
    <linearGradient id="linear-gradient" x1="2.69" y1="4.69" x2="29.31" y2="31.31" gradientTransform="translate(0 34) scale(1 -1)" gradientUnits="userSpaceOnUse">
      <stop offset="0" stop-color="#ffd600"/>
      <stop offset=".5" stop-color="#ff0100"/>
      <stop offset="1" stop-color="#d800b9"/>
    </linearGradient>
    <linearGradient id="linear-gradient1" x1="4.69" y1="6.69" x2="27.31" y2="29.31" gradientTransform="translate(0 34) scale(1 -1)" gradientUnits="userSpaceOnUse">
      <stop offset="0" stop-color="#ff6400"/>
      <stop offset=".5" stop-color="#ff0100"/>
      <stop offset="1" stop-color="#fd0056"/>
    </linearGradient>
    <linearGradient id="linear-gradient2" x1="23.18" y1="25.18" x2="25.9" y2="27.9" gradientTransform="translate(0 34) scale(1 -1)" gradientUnits="userSpaceOnUse">
      <stop offset="0" stop-color="#f30072"/>
      <stop offset="1" stop-color="#e50097"/>
    </linearGradient>
  </defs>
  <path class="st2" d="M31.9,9.4c-.08-1.7-.35-2.87-.74-3.88-.4-1.07-1.03-2.03-1.85-2.83-.8-.81-1.77-1.44-2.83-1.85-1.02-.4-2.18-.67-3.88-.74-1.71-.08-2.25-.1-6.6-.1s-4.89.02-6.6.1c-1.7.08-2.87.35-3.88.74-1.07.4-2.03,1.03-2.83,1.85-.81.8-1.44,1.77-1.85,2.83-.4,1.02-.67,2.18-.74,3.88-.08,1.71-.1,2.25-.1,6.6s.02,4.89.1,6.6c.08,1.7.35,2.87.74,3.88.4,1.07,1.03,2.03,1.85,2.83.8.81,1.77,1.44,2.83,1.85,1.02.4,2.18.67,3.88.74,1.71.08,2.25.1,6.6.1s4.89-.02,6.6-.1c1.7-.08,2.87-.35,3.88-.74,2.15-.83,3.85-2.53,4.68-4.68.4-1.02.67-2.18.74-3.88.08-1.71.1-2.25.1-6.6s-.02-4.89-.1-6.6ZM29.02,22.47c-.07,1.56-.33,2.41-.55,2.97-.54,1.4-1.64,2.5-3.04,3.04-.56.22-1.41.48-2.97.55-1.69.08-2.19.09-6.47.09s-4.78-.02-6.47-.09c-1.56-.07-2.41-.33-2.97-.55-.69-.26-1.32-.67-1.84-1.2-.53-.52-.94-1.14-1.2-1.84-.22-.56-.48-1.41-.55-2.97-.08-1.69-.09-2.19-.09-6.47s.02-4.78.09-6.47c.07-1.56.33-2.41.55-2.97.26-.7.67-1.32,1.2-1.84.52-.53,1.14-.94,1.84-1.2.56-.22,1.41-.48,2.97-.55,1.69-.08,2.19-.09,6.47-.09s4.78.02,6.47.09c1.56.07,2.41.33,2.97.55.69.26,1.32.67,1.84,1.2.53.52.94,1.14,1.2,1.84.22.56.48,1.41.55,2.97.08,1.69.09,2.19.09,6.47s-.02,4.78-.09,6.47Z"/>
  <path class="st1" d="M16,7.78c-4.54,0-8.22,3.68-8.22,8.22s3.68,8.22,8.22,8.22,8.22-3.68,8.22-8.22-3.68-8.22-8.22-8.22ZM16,21.33c-2.94,0-5.33-2.39-5.33-5.33s2.39-5.33,5.33-5.33c2.95,0,5.33,2.39,5.33,5.33s-2.39,5.33-5.33,5.33Z"/>
  <path class="st0" d="M26.46,7.46c0,1.06-.86,1.92-1.92,1.92s-1.92-.86-1.92-1.92.86-1.92,1.92-1.92,1.92.86,1.92,1.92Z"/>
</svg>