<?xml version="1.0" encoding="UTF-8"?>
<svg id="Layer_1" xmlns="http://www.w3.org/2000/svg" version="1.1" viewBox="0 0 1200 204.49">
  <!-- Generator: Adobe Illustrator 29.5.1, SVG Export Plug-In . SVG Version: 2.1.0 Build 141)  -->
  <defs>
    <style>
      .st0 {
        fill: #500b75;
      }

      .st1 {
        fill: #fc671a;
      }

      .st2 {
        fill: #8b4b9f;
      }

      .st3 {
        fill: #f48271;
      }
    </style>
  </defs>
  <path class="st0" d="M575.12,0c1.35,4.11,2.31,8.25,3.52,12.31,6.09,20.44,12.26,40.86,18.36,61.29,3.57,11.97,6.85,24.04,10.67,35.93,3.76,11.73,12.19,18.36,24.34,19.89,6.2.78,12.48.99,18.74,1.2,5.86.19,11.77.52,17.57-.11,4.79-.51,9.59-1.94,14.13-3.66,4.59-1.74,6.46-7.62,5.45-11.86-1.98-8.22-4.12-16.41-6.47-24.54-4.36-15.06-8.91-30.07-13.46-45.34h24.97c3.32,0,6.65-.11,9.96.07.88.05,2.26.82,2.49,1.55,3.25,10.5,6.36,21.05,9.48,31.6,2.42,8.2,4.72,16.44,7.26,24.6,1.28,4.1,2.66,8.22,4.55,12.06,3.81,7.72,10.37,12.21,18.67,13.82,5.33,1.03,10.8,1.3,16.22,1.82,2.97.29,5.97.69,8.93.55,8.38-.4,16.86.07,24.99-2.82,7.74-2.75,11.18-9.11,8.83-16.96-4.52-15.11-9.11-30.21-13.64-45.32-2.05-6.84-4.03-13.69-6.12-20.8.81-.07,1.52-.17,2.24-.17,11.91,0,23.83.06,35.74-.08,1.89-.02,2.86.81,3.58,2.12,3.67,6.68,7.22,13.43,10.87,20.13,6.85,12.55,13.74,25.08,20.89,38.11,1.45-4.36,2.78-8.28,4.05-12.21,3.97-12.24,7.95-24.47,11.86-36.73,1.5-4.7,3.19-9.48,8.33-11.08,3.47-1.08,7.38-1.65,10.97-1.26,7.24.79,13.65,4.06,18.76,9.26,5.14,5.22,9.85,10.86,14.79,16.28,2.8,3.08,5.68,6.08,8.53,9.12,6.12,6.51,12.25,13.01,18.34,19.54,1.96,2.11,3.8,4.33,6.38,6.34-.16-2.52-.31-5.03-.48-7.55-.04-.57-.18-1.14-.2-1.71-.21-6.59-.34-13.19-.61-19.78-.33-7.91-.73-15.83-1.18-23.74-.12-2.17-.5-4.32-.8-6.78h17.04c6.74,0,13.48.21,20.21-.1,2.84-.13,3.85,1.01,4.53,3.36,4.88,16.79,9.75,33.57,14.74,50.32,1.58,5.3,2.96,10.76,5.38,15.68,4.47,9.08,12.36,13.91,22.3,15.04,6.4.73,12.91.57,19.31,1.3,8.31.95,16.48.1,24.59-1.33,5.54-.98,10.86-3.45,11.88-9.63.62-3.79-.19-8.03-1.2-11.84-2.99-11.26-6.34-22.43-9.68-33.59-2.88-9.62-5.95-19.18-9.02-29.04h37.11c3.89,13.21,7.84,26.61,11.8,40,2.37,8.02,4.98,15.98,7.09,24.07,1.33,5.11,2.79,10.44,2.7,15.64-.26,13.97-5.12,23.99-20.42,30.33-9.56,3.96-19.48,5.56-29.72,5.8-7.08.16-14.19.85-21.24.46-8.57-.47-17.09-1.8-25.63-2.79-9.01-1.05-17.42-4.14-25.35-8.33-5.3-2.8-10.11-6.53-14.94-9.72-.25,3.36-.41,7.17-.86,10.95-.63,5.27-5.91,10.18-11.1,11.23-9.64,1.94-17.51-1.73-24-8.11-8.89-8.75-17.19-18.12-25.67-27.28-5.9-6.37-11.71-12.83-17.53-19.27-4.65-5.15-9.26-10.33-13.98-15.59-4.93,15.31-9.81,30.55-14.75,45.76-1.73,5.35-3.42,10.72-5.46,15.95-2.85,7.31-10.92,9.97-18.06,8.68-6.68-1.21-12.23-4.18-16.83-8.67-3.04-2.97-5-7.06-7.42-10.67-.79-1.17-1.52-2.38-2.39-3.75-4.83,9.96-13.51,14.58-23.3,17.59-7.31,2.25-14.82,3.42-22.48,3.57-7.18.14-14.37.7-21.53.49-8.98-.27-17.92-.95-26.82-2.7-9.72-1.91-18.9-4.91-27.54-9.72-.52-.29-1.64,0-2.21.4-5.63,4.09-11.71,7.2-18.56,8.59-5.38,1.09-10.77,2.4-16.22,2.82-7.93.61-15.92.75-23.87.63-9.48-.15-18.9-.9-28.28-2.75-12.38-2.44-23.9-6.6-34.17-14.05-7.01-5.09-12.56-11.4-17.06-18.81-6.8-11.22-9.24-23.96-13.13-36.19-2.96-9.31-5.59-18.73-8.37-28.09-4.7-15.86-9.4-31.71-14.3-47.9.38-1.81.86-3.34,1.56-4.77,1.5-3.06,3.1-6.06,4.67-9.09h26.68v.03Z"/>
  <path class="st2" d="M0,159.03c.6-.94,1.38-1.55,1.77-2.34,3.92-8.02,7.78-16.07,11.63-24.12.16-.33.13-.76.21-1.32h3.77c62.79,0,125.58.03,188.37-.08,3.64,0,7.41-.7,10.87-1.85,1.9-.63,3.97-2.61,4.68-4.47.96-2.48-1.23-4.45-3.2-5.87-4.22-3.05-9.17-4.07-14.21-4.09-20.7-.11-41.41-.04-62.11-.05-15.21,0-29.01-4.59-40.95-13.86-8.48-6.59-14.05-15.2-15.41-26.33-.85-6.92.7-12.74,5.16-17.98,5.02-5.9,11.64-8.95,18.98-10.27,5.27-.95,10.71-1.21,16.08-1.23,33.59-.1,67.19-.05,100.78-.05h3.06c-3.45,7.26-6.71,14.12-9.98,20.98-.24.51-.7.97-.79,1.5-1.37,7.41-6.19,8.27-12.89,8.15-23.82-.42-47.65-.17-71.48-.14-1.12,0-2.23.42-3.35.48-1.68.09-3.05.37-3.28,2.43-.26,2.26.8,3.82,2.66,4.66,1.51.67,3.25,1.14,4.89,1.15,20.6.07,41.22-.24,61.81.14,16.15.3,30.81,5.29,43.51,15.7,7.13,5.84,12.18,12.95,15.1,21.62,2.73,8.11,3.28,16.11-1.36,23.84-4.36,7.26-11.04,11.49-18.9,13.63-5.18,1.41-10.68,2.36-16.04,2.37-72.95.15-145.9.1-219.12.1-.26-.83-.26-1.64-.26-2.7Z"/>
  <path class="st2" d="M274.53,0c.97,2.95,1.51,5.94,2.37,8.83,4.87,16.28,9.85,32.53,14.73,48.82,4.75,15.84,9.52,31.67,14.07,47.56,1.47,5.13,3.27,9.94,6.66,14.16,4.1,5.11,9.46,8.17,15.65,9.44,5.31,1.09,10.79,1.32,16.21,1.84,3.07.3,6.16.68,9.22.55,8.48-.35,17.05-.02,25.27-2.86,5-1.73,8.85-5.44,8.71-11.83-.1-4.99-1.72-9.48-3.07-14.09-4.41-15.05-8.96-30.06-13.44-45.09-1.18-3.95-2.31-7.92-3.55-12.21h7.01c8.98,0,17.96.04,26.94-.03,2.04-.02,3.25.22,3.77,2.65.75,3.55,2.12,6.97,3.28,10.87-.14.95-.26,1.52-.53,2-3.69,6.45-7.4,12.89-11.22,19.53,4.81,4.21,9.59,8.28,14.23,12.5,3.77,3.43,7.37,7.05,11.04,10.59,1.09,4.67,2.34,9.31,3.22,14.02,2.22,11.89.56,22.85-8.75,31.48-5.89,5.46-13.23,8.26-20.92,10.03-14.02,3.23-28.33,3.37-42.58,2.84-8.07-.3-16.1-1.82-24.16-2.79-8.91-1.08-17.19-4.21-25.07-8.26-15.28-7.84-26.23-19.83-31.64-36.15-5.55-16.75-10.25-33.79-15.36-50.68-5.82-19.24-11.7-38.47-17.51-57.71-.54-1.8-.81-3.68-1.21-5.76,12.11-.25,24.23-.25,36.63-.25Z"/>
  <path class="st3" d="M548.16,0c-1.29,3.03-2.89,6.03-4.39,9.09-.7,1.43-1.19,2.95-1.77,4.66-4.28,7.4-8.61,14.53-12.82,21.75-5.26,9.04-10.43,18.14-15.61,27.22-3.25,5.69-6.44,11.41-9.76,17.31,4.44,3.83,8.9,7.64,13.32,11.5,3.85,3.37,7.62,6.82,11.47,10.2,7.6,6.67,15.25,13.29,22.85,19.95,3.63,3.18,7.19,6.44,10.81,9.62,7.75,6.8,15.52,13.57,23.27,20.36,3.41,2.99,6.8,5.99,10.18,9.01.75.67,1.42,1.45,2.73,2.81h-3.38c-12.88,0-25.77.08-38.65-.09-1.71-.02-3.71-.95-5.05-2.08-7.52-6.31-14.89-12.8-22.28-19.27-3.7-3.24-7.33-6.57-11.02-9.82-7.67-6.73-15.4-13.41-23.06-20.16-5.68-5.01-11.26-10.14-16.95-15.14-5.56-4.89-11.18-9.72-16.83-14.51-1.61-1.36-2.18-2.5-.91-4.6,4.48-7.41,8.75-14.94,13.06-22.46,6.2-10.81,12.35-21.64,18.52-32.47,3.82-6.69,7.64-13.38,11.47-20.07.48-.83.99-1.64,1.32-2.64,14.28-.17,28.74-.17,43.48-.17Z"/>
  <path class="st1" d="M422.07,103.24c-3.87-3.55-7.47-7.17-11.24-10.6-4.64-4.22-9.42-8.29-14.23-12.5,3.82-6.64,7.53-13.08,11.22-19.53.28-.48.4-1.05.63-1.8,4.7-8.25,9.37-16.27,14.02-24.31,5.43-9.39,10.83-18.79,16.25-28.19,1.14-1.98,2.28-3.97,3.25-6.13,14.68-.18,29.54-.18,44.67-.18-6.47,11.74-13.25,23.46-19.97,35.21-5.63,9.85-11.2,19.74-16.82,29.6-2.83,4.97-5.72,9.9-8.77,15.16,31.31,27.54,62.68,55.12,94.52,83.12-1.28.19-1.89.36-2.49.37-13.47.02-26.94.04-40.41-.05-1.1,0-2.42-.58-3.27-1.31-7.76-6.66-15.46-13.4-23.13-20.16-5.55-4.89-11-9.88-16.55-14.76-7.32-6.42-14.7-12.76-22.04-19.14-1.82-1.58-3.61-3.19-5.62-4.81h-.02Z"/>
  <path class="st0" d="M1200,161.46c-11.31.26-22.63.23-33.94.29-1.51,0-2.51-.21-2.98-1.83-2.46-8.47-4.98-16.93-7.47-25.39-6.1-20.71-12.17-41.43-18.31-62.13-5.63-18.98-11.32-37.94-16.99-56.91-1.5-5.02-3.04-10.03-4.62-15.27,12.06-.22,24.18-.22,36.58.01,1.64,4.72,3.04,9.19,4.38,13.68,5.87,19.7,11.73,39.4,17.58,59.11,5.1,17.19,10.16,34.38,15.24,51.57,3.12,10.53,6.24,21.06,9.41,31.57.11.37.74.58,1.13.86v4.43h-.01Z"/>
  <path class="st0" d="M665.35,0c.8,2.4,1.18,4.84,1.88,7.19,2.71,9.08,5.52,18.12,8.26,27.19.16.53.02,1.14.02,1.95h-21.03c-4.19,0-8.4-.2-12.57.07-2.56.16-3.24-1.09-3.83-3.11-3.23-10.96-6.54-21.9-9.89-33.07,12.25-.22,24.57-.22,37.16-.22Z"/>
  <path class="st2" d="M356.52,204.49c-1.4-4.18-2.47-8.38-3.68-12.54-2.08-7.21-4.25-14.4-6.36-21.6-.18-.62-.14-1.3-.23-2.18h31.42c4.83,0,4.91-.02,6.27,4.52,3.12,10.43,6.15,20.88,9.21,31.57-12.12.24-24.24.24-36.64.24h0Z"/>
  <path class="st0" d="M621.99,0c1.4,4.18,2.47,8.38,3.68,12.54,2.12,7.3,4.34,14.57,6.48,21.87.15.52.02,1.13.02,1.92-9.51,0-18.96.02-28.41,0-2.61,0-5.78.7-7.66-.52-1.57-1.02-1.68-4.35-2.37-6.68-2.81-9.54-5.59-19.09-8.38-28.87,12.12-.25,24.24-.25,36.64-.25Z"/>
  <path class="st0" d="M1042.11,0c1.01,2.81,1.69,5.64,2.5,8.43,2.52,8.65,5.11,17.28,7.63,25.93.15.53.02,1.14.02,1.97h-22.48c-3.41,0-6.85-.27-10.23.08-2.94.31-4.01-1.01-4.72-3.49-2.88-10.01-5.84-19.99-8.77-29.99-.24-.81-.4-1.64-.6-2.69,12.13-.24,24.25-.24,36.65-.24Z"/>
</svg>