<?xml version="1.0" encoding="UTF-8"?>
<svg id="Layer_1" xmlns="http://www.w3.org/2000/svg" version="1.1" viewBox="0 0 48 48">
  <!-- Generator: Adobe Illustrator 29.5.1, SVG Export Plug-In . SVG Version: 2.1.0 Build 141)  -->
  <defs>
    <style>
      .st0 {
        fill: #252528;
      }
    </style>
  </defs>
  <path class="st0" d="M16.06,36.94c-.18.11-.34.2-.51.3-.05-.07-.09-.11-.12-.16-.53-.88-1.29-1.38-2.33-1.3-1.02.08-1.67.72-2.03,1.63-.46,1.16-.34,2.27.52,3.22,1.14,1.25,2.95,1.02,3.78-.46.05-.08.09-.17.16-.29.16.1.31.16.43.27.04.04.02.21-.03.29-.57.83-1.35,1.32-2.36,1.4-1.62.12-3.11-1-3.41-2.56-.32-1.63.63-3.28,2.17-3.77,1.31-.42,2.84.11,3.62,1.25.03.05.06.11.11.19Z"/>
  <path class="st0" d="M21.03,39.59c0,1.24-1,2.25-2.23,2.25-1.23,0-2.21-1-2.21-2.26,0-1.25,1-2.24,2.24-2.23,1.23.01,2.2,1,2.2,2.24ZM17.34,39.58c0,.58.18,1.09.61,1.49.49.47,1.2.48,1.71.03.81-.72.87-2.1.14-2.89-.54-.59-1.37-.6-1.92-.01-.37.39-.52.86-.52,1.39h0Z"/>
  <path class="st0" d="M33.88,40.22c.2.08.4.15.61.23-.09.23-.22.43-.37.6-.62.73-1.65.98-2.53.62-.89-.37-1.45-1.28-1.38-2.24.07-.97.74-1.79,1.66-2.03.99-.26,2.03.19,2.51,1.08.04.08.05.15,0,.23-.12.25-.31.45-.53.62-.4.31-.86.51-1.34.68-.33.12-.66.27-.98.41-.1.05-.19.14-.28.21-.02.02-.03.08-.02.1.44.69,1.12.87,1.72.61.42-.19.68-.54.85-.95.02-.06.05-.11.07-.17h0ZM31.05,40.35c.09-.1.16-.2.24-.29.31-.33.69-.53,1.11-.66.46-.14.89-.34,1.3-.58.04-.02.07-.05.12-.08-.08-.14-.14-.27-.22-.39-.54-.79-1.55-.87-2.16-.18-.38.43-.54.93-.52,1.5,0,.23.05.46.13.69h0Z"/>
  <path class="st0" d="M29.22,40.22c.2.08.4.15.61.23-.09.23-.22.43-.37.6-.62.73-1.65.98-2.53.62-.89-.37-1.45-1.28-1.38-2.24.07-.97.74-1.79,1.66-2.03.99-.26,2.03.19,2.51,1.08.04.08.05.15,0,.23-.12.25-.31.45-.53.62-.4.31-.86.51-1.34.68-.33.12-.66.27-.98.41-.1.05-.19.14-.28.21-.02.02-.03.08-.02.1.44.69,1.12.87,1.72.61.42-.19.68-.54.85-.95.02-.06.05-.11.07-.17h0ZM26.39,40.35c.09-.1.16-.2.24-.29.31-.33.69-.53,1.11-.66.46-.14.89-.34,1.3-.58.04-.02.07-.05.12-.08-.08-.14-.14-.27-.22-.39-.54-.79-1.55-.87-2.16-.18-.38.43-.54.93-.52,1.5,0,.23.05.46.13.69h0Z"/>
  <path class="st0" d="M25.28,37.67s-.1-.05-.17-.04c-.18,0-.36.02-.53,0-.07-.01-.18-.12-.19-.18-.02-.28-.02-.57.02-.85.05-.43.28-.63.7-.65.08,0,.14-.01.18-.05v-.32s-.1-.04-.17-.05c-.87-.04-1.45.52-1.46,1.39,0,.75,0,1.5,0,2.25,0,.8,0,1.61,0,2.41,0,.09.04.24.08.25.19.02.39.04.57,0,.05-.01.07-.23.07-.36,0-1.03.01-2.07,0-3.1,0-.25.08-.34.32-.31.14.02.28,0,.42,0,.07,0,.13,0,.16-.04v-.32h0Z"/>
  <path class="st0" d="M23.05,37.63s-.02,0-.03,0c-.18,0-.37.02-.56,0-.07-.01-.17-.12-.18-.18-.02-.24-.02-.48,0-.72.02-.5.25-.74.74-.78.01,0,.02,0,.03,0v-.4s-.01,0-.02,0c-.83-.1-1.49.5-1.49,1.34,0,.76,0,1.51,0,2.27,0,.81,0,1.62,0,2.43,0,.08.05.24.09.24.19.02.39.03.57-.02.05-.01.06-.24.06-.37,0-1.04,0-2.09,0-3.13,0-.21.07-.29.27-.27.16.01.32.02.48,0,0,0,.02,0,.03-.01v-.38h0Z"/>
  <path class="st0" d="M31.51,33.04s.02-.01.02-.02c.49-.5,1.08-.91,1.63-1.34.11-.09.27.01.23.15-.03.13-.07.24-.1.29-.34.6-.54,1.34-1.05,1.83-.19.18-.44.31-.7.3-.2-.01-.39-.11-.56-.22-1.34-.9-1.39-2.59-1.28-4.06.03-.47.12-.93.09-1.44-.09.18-.18.36-.29.53-.59,1.02-1.05,2.11-1.68,3.1-.62.98-1.49,2.3-2.84,2.13-.43-.05-.83-.27-1.14-.57-.93-.88-1.11-2.25-1.04-3.46.27-4.13,1.84-8.01,3.91-11.54.12-.21.26-.41.41-.6.22-.26.51-.54.86-.6.24-.04.52.03.67.23.16.21.14.51.06.76-.18.56-.49,1.08-.74,1.61-.02.05-.07.12-.11.13-.57.16-.75.69-.95,1.13-.77,1.75-1.43,3.55-1.89,5.41-.45,1.83-.85,3.74-.5,5.63.02.12.06.26.17.32.14.08.32-.03.45-.13,1.04-.88,1.71-2.12,2.34-3.31.72-1.34,1.39-2.71,2.03-4.09,1.78-3.91,3.5-7.85,5.25-11.77.32-.72.7-1.41,1.06-2.11.24-.46.79-.71,1.19-.5.44.23.5.67.4,1.13-.04.19-.13.37-.2.55-1.91,4.94-4.04,9.8-5.26,14.99-.21.91-.47,1.81-.63,2.72-.08.46-.14.92-.16,1.39-.02.43-.04.93.1,1.35.02.05.04.1.09.12.05.02.11,0,.16-.05h0Z"/>
  <path class="st0" d="M42.85,12.98c-.58-.58-.65-1.6-.16-2.26.64-.87,1.91-.95,2.75-1.62-4.26-.15-8.55.45-12.61,1.77-1.01.33-2,.7-2.95,1.17-.45.22-.91.47-1.33.75-.39.26-.83.5-1.13.87-.09.11-.16.23-.2.36-.11.47.4.85.39,1.32-.46-.13-.85-.5-1.01-.96-.35-1.04.56-1.96,1.28-2.58.82-.7,1.78-1.22,2.76-1.65,2.71-1.18,5.64-1.73,8.56-2.1,2.55-.31,5.14-.49,7.66,0,.28.05.56.12.79.29.23.17.39.46.33.74-.07.29-.34.47-.61.6-1.16.57-2.51.7-3.62,1.37-.34.2-.65.46-.85.8-.19.34-.25.78-.06,1.13h0Z"/>
  <path class="st0" d="M24.8,9.48c.1-.34.2-.69.06-1.04-.07-.17-.2-.31-.37-.37-.44-.14-.77.31-.97.7-.9,1.72-1.41,3.52-2.02,5.37-.39,1.18-.7,2.31-.98,3.52-.26,1.09-.68,2.26-1.19,3.26-.16.32-.42.58-.74.75-1.19.65-2.98,1.57-4.33,2.22-.13.06-.28-.06-.25-.2.81-3.24,1.65-7.03,1.5-10.13-.06-1.31-.27-2.66-.69-3.88-.29-.83-.89-1.5-1.77-1.69-.82-.18-1.69.05-2.42.43-1.99,1.02-3.15,3.44-3,5.65.03.49.13.97.32,1.42.14.33.43,1.04.85,1.06,0-.02,0-.04-.01-.06-1.05-2.1-.45-4.77,1.46-6.17.2-.14.41-.27.63-.38.26-.13.54-.23.82-.29,1.19-.27,1.51.96,1.62,1.97.42,4.01-.27,7.9-1.1,11.81-.05.23-.11.46-.22.68-.03.06-.07.12-.13.16-.08.06-.17.07-.27.08-.88.09-1.78-.25-2.42-.86-.07-.07-.14-.14-.23-.18-.27-.12-.26.19-.2.37.08.28.31.54.49.76.41.49.94.88,1.52,1.14.22.09.6.2.67.46.07.25-.16.63-.23.87-.12.41-.25.81-.38,1.21-.53,1.59-1.16,3.15-1.69,4.75-.07.21-.02.46.14.6.28.24.58.04.78-.18.43-.46.71-1.04.98-1.62.67-1.42,1.3-2.87,1.88-4.33.09-.22.18-.45.28-.66.26-.58.72-1.04,1.29-1.3.37-.17.73-.35,1.09-.52,1.05-.5,2.47-1.19,3.65-1.75-.54,3.67-.49,7.29.62,10.87.07.23.3.39.53.34.32-.07.33-.47.29-.77-.44-3.25-.33-6.58.31-9.79.1-.48.23-1.01.64-1.29.22-.15.53-.31.45-.56-.03-.1-.13-.17-.21-.24-.38-.37-.26-1-.11-1.51,1.02-3.55,2.04-7.11,3.06-10.66h0Z"/>
  <path class="st0" d="M5.92,30.84L.61,25.49c-.81-.82-.81-2.15,0-2.97l5.3-5.35.93.94-5.3,5.35c-.3.3-.3.79,0,1.09l5.3,5.35-.93.94h0Z"/>
  <path class="st0" d="M28.14,8.41l-5.3-5.35c-.3-.3-.78-.3-1.08,0l-5.3,5.35-.93-.94,5.3-5.36c.81-.82,2.13-.82,2.94,0l5.3,5.35-.93.94h0Z"/>
  <path class="st0" d="M38.68,30.84l-.93-.94,5.3-5.35c.3-.3.3-.79,0-1.09l-5.3-5.35.93-.94,5.3,5.35c.81.82.81,2.15,0,2.97l-5.3,5.35h0Z"/>
  <path class="st0" d="M22.3,46.5c-.56,0-1.08-.22-1.47-.62l-1.74-1.75.93-.94,1.74,1.75c.3.3.78.3,1.08,0l1.74-1.75.93.94-1.74,1.75c-.39.4-.92.62-1.47.62Z"/>
</svg>