<svg width="48" height="48" viewBox="0 0 48 48" fill="none" xmlns="http://www.w3.org/2000/svg">
<path d="M16.0582 36.4359C15.876 36.5444 15.718 36.6352 15.5512 36.7349C15.5029 36.6685 15.4612 36.622 15.4305 36.571C14.8993 35.6896 14.1443 35.1891 13.104 35.2732C12.0878 35.3574 11.4381 35.9952 11.0782 36.9032C10.6195 38.0615 10.7358 39.1755 11.5984 40.1211C12.7374 41.368 14.5481 41.1377 15.3778 39.6605C15.4261 39.5763 15.47 39.49 15.538 39.3704C15.6938 39.4656 15.8519 39.532 15.966 39.645C16.0099 39.6893 15.9879 39.8598 15.9374 39.9307C15.3646 40.7612 14.5855 41.2484 13.5737 41.3259C11.9561 41.4455 10.4658 40.3249 10.163 38.7613C9.84691 37.1269 10.7907 35.4858 12.3314 34.9875C13.6373 34.5645 15.1737 35.096 15.9506 36.241C15.9835 36.292 16.0099 36.3473 16.0582 36.4359Z" fill="#252528"/>
<path d="M21.0272 39.0891C21.0272 40.3338 20.0307 41.337 18.8016 41.3348C17.5682 41.3304 16.5915 40.3315 16.5937 39.0758C16.5937 37.829 17.5901 36.8368 18.8302 36.8479C20.0571 36.8589 21.0294 37.8489 21.0272 39.0891ZM17.3355 39.0825C17.3333 39.6627 17.5177 40.1699 17.9413 40.5707C18.4351 41.0402 19.1462 41.0491 19.6488 40.5995C20.4587 39.8775 20.5224 38.5044 19.7849 37.7072C19.2406 37.118 18.4132 37.1114 17.8601 37.6939C17.4914 38.0814 17.3399 38.5532 17.3377 39.0825H17.3355Z" fill="#252528"/>
<path d="M33.8842 39.7203C34.0883 39.7978 34.2859 39.8709 34.4922 39.9484C34.3978 40.1765 34.2727 40.3736 34.1213 40.553C33.5023 41.2816 32.4752 41.5341 31.5951 41.1709C30.7084 40.8055 30.1443 39.8908 30.2102 38.9274C30.276 37.9596 30.9498 37.138 31.8716 36.8988C32.8615 36.6419 33.8996 37.0893 34.3802 37.9751C34.4241 38.0571 34.4285 38.1279 34.389 38.2099C34.2661 38.4624 34.0796 38.6595 33.8623 38.8278C33.4584 39.1378 32.9997 39.3394 32.5257 39.5121C32.1942 39.6339 31.8694 39.7779 31.5468 39.9263C31.4436 39.9728 31.3558 40.0614 31.268 40.1389C31.2461 40.1566 31.2351 40.2208 31.2483 40.243C31.6872 40.9339 32.3698 41.1155 32.9646 40.8498C33.3838 40.6615 33.6406 40.3138 33.814 39.8975C33.8381 39.8421 33.8601 39.7867 33.8864 39.7225L33.8842 39.7203ZM31.0486 39.8487C31.1342 39.7447 31.2044 39.6472 31.2856 39.5586C31.5907 39.2286 31.9726 39.0271 32.394 38.9009C32.8527 38.7636 33.2829 38.562 33.6933 38.3162C33.7306 38.294 33.7679 38.2675 33.8162 38.2342C33.7394 38.0969 33.6779 37.9618 33.5945 37.84C33.0524 37.0516 32.0472 36.9719 31.437 37.6584C31.0551 38.0881 30.8971 38.5908 30.9125 39.1578C30.9191 39.3903 30.9608 39.6162 31.0464 39.8465L31.0486 39.8487Z" fill="#252528"/>
<path d="M29.2247 39.7203C29.4288 39.7978 29.6263 39.8709 29.8327 39.9484C29.7383 40.1765 29.6132 40.3736 29.4617 40.553C28.8428 41.2816 27.8156 41.5341 26.9355 41.1709C26.0488 40.8055 25.4848 39.8908 25.5506 38.9274C25.6165 37.9596 26.2903 37.138 27.2121 36.8988C28.2019 36.6419 29.2401 37.0893 29.7207 37.9751C29.7646 38.0571 29.769 38.1279 29.7295 38.2099C29.6066 38.4624 29.42 38.6595 29.2027 38.8278C28.7989 39.1378 28.3402 39.3394 27.8661 39.5121C27.5347 39.6339 27.2099 39.7779 26.8872 39.9263C26.7841 39.9728 26.6963 40.0614 26.6085 40.1389C26.5866 40.1566 26.5756 40.2208 26.5888 40.243C27.0277 40.9339 27.7103 41.1155 28.3051 40.8498C28.7243 40.6615 28.9811 40.3138 29.1545 39.8975C29.1786 39.8421 29.2006 39.7867 29.2269 39.7225L29.2247 39.7203ZM26.389 39.8487C26.4746 39.7447 26.5449 39.6472 26.6261 39.5586C26.9311 39.2286 27.313 39.0271 27.7344 38.9009C28.1931 38.7636 28.6233 38.562 29.0337 38.3162C29.0711 38.294 29.1084 38.2675 29.1567 38.2342C29.0798 38.0969 29.0184 37.9618 28.935 37.84C28.3929 37.0516 27.3877 36.9719 26.7775 37.6584C26.3956 38.0881 26.2376 38.5908 26.253 39.1578C26.2595 39.3903 26.3012 39.6162 26.3868 39.8465L26.389 39.8487Z" fill="#252528"/>
<path d="M25.285 37.169C25.2455 37.1358 25.1885 37.1225 25.1117 37.1269C24.9361 37.1335 24.7561 37.1446 24.5827 37.118C24.5103 37.107 24.3984 37.0029 24.3962 36.9387C24.3808 36.6552 24.3786 36.3673 24.4115 36.0838C24.462 35.6541 24.6925 35.4504 25.1073 35.4349C25.1863 35.4327 25.2455 35.4216 25.2872 35.3862V35.0628C25.2499 35.0296 25.1907 35.0185 25.1161 35.0163C24.2469 34.9809 23.6631 35.5323 23.6565 36.4094C23.6521 37.1579 23.6565 37.9065 23.6565 38.6572C23.6565 39.459 23.6543 40.2629 23.6609 41.0646C23.6609 41.151 23.7026 41.3082 23.7399 41.3149C23.9287 41.3392 24.1306 41.3525 24.3128 41.3082C24.3632 41.2949 24.3852 41.0757 24.3852 40.9494C24.3918 39.9152 24.3962 38.8809 24.3852 37.8467C24.383 37.5986 24.462 37.5078 24.7034 37.5322C24.8439 37.5477 24.9866 37.5322 25.127 37.5344C25.1995 37.5366 25.2543 37.5255 25.2894 37.4901V37.1712L25.285 37.169Z" fill="#252528"/>
<path d="M23.0486 37.1291C23.0486 37.1291 23.0288 37.1247 23.0178 37.1247C22.8335 37.1291 22.6447 37.1424 22.4626 37.1158C22.3923 37.1048 22.2892 37.0007 22.2826 36.932C22.2606 36.6928 22.2672 36.4514 22.276 36.21C22.2979 35.7095 22.5262 35.4703 23.0178 35.4327C23.0288 35.4327 23.0376 35.4282 23.0486 35.426V35.0296C23.0486 35.0296 23.0376 35.023 23.031 35.023C22.2014 34.9233 21.5451 35.519 21.5407 36.3673C21.5385 37.1247 21.5407 37.8821 21.5407 38.6417C21.5407 39.4523 21.5385 40.2651 21.5451 41.0757C21.5451 41.1598 21.5956 41.3149 21.6351 41.3193C21.8239 41.3392 22.0258 41.3481 22.208 41.2971C22.2584 41.2838 22.2694 41.0602 22.2716 40.9317C22.276 39.8886 22.2804 38.8455 22.2716 37.8024C22.2716 37.592 22.3375 37.51 22.546 37.5278C22.704 37.541 22.8664 37.5499 23.0222 37.5211C23.031 37.5211 23.042 37.5123 23.053 37.5078V37.1291H23.0486Z" fill="#252528"/>
<path d="M31.5117 32.5381C31.5117 32.5381 31.527 32.5248 31.5336 32.5204C32.0274 32.0221 32.6178 31.6146 33.1643 31.1827C33.2741 31.0963 33.4343 31.196 33.3992 31.3333C33.3663 31.4618 33.3268 31.5725 33.296 31.6256C32.9558 32.2303 32.7539 32.9655 32.2425 33.4572C32.0538 33.6388 31.8036 33.7695 31.5424 33.7562C31.3383 33.7451 31.1495 33.6476 30.9783 33.5325C29.6417 32.6333 29.589 30.9391 29.6944 29.4774C29.7273 29.0079 29.8129 28.5428 29.7822 28.0379C29.6878 28.215 29.5978 28.3944 29.4968 28.5672C28.9086 29.5837 28.4499 30.6733 27.82 31.6655C27.1989 32.6444 26.3342 33.9621 24.9778 33.8005C24.5454 33.7495 24.1503 33.5347 23.8343 33.2335C22.9015 32.3498 22.7215 30.9856 22.7984 29.7742C23.0639 25.6416 24.642 21.7637 26.7117 18.2313C26.8346 18.0209 26.9706 17.8194 27.1265 17.6355C27.3438 17.3764 27.6379 17.0996 27.9912 17.0354C28.2348 16.9911 28.5114 17.0664 28.6606 17.2657C28.8187 17.4761 28.8055 17.7751 28.7221 18.0253C28.5399 18.5812 28.2348 19.1083 27.9868 19.6354C27.9627 19.6863 27.9144 19.7572 27.8793 19.7661C27.3043 19.9255 27.1287 20.4548 26.9333 20.8978C26.1608 22.6451 25.5001 24.4501 25.0414 26.3082C24.5893 28.1397 24.192 30.0488 24.5454 31.9357C24.5674 32.0575 24.6047 32.1926 24.7122 32.2546C24.8571 32.3366 25.0327 32.228 25.1599 32.1217C26.2025 31.2381 26.8653 30.0045 27.4974 28.813C28.2129 27.4687 28.8911 26.1045 29.5232 24.7203C31.3075 20.8136 33.0195 16.8737 34.7753 12.9537C35.0958 12.2362 35.4711 11.5408 35.8376 10.8453C36.0812 10.3847 36.6321 10.1366 37.025 10.347C37.4661 10.5818 37.5298 11.0181 37.4222 11.4743C37.3783 11.6648 37.2883 11.8442 37.2181 12.0258C35.313 16.9667 33.1819 21.8301 31.9616 27.0147C31.7487 27.9205 31.4941 28.8197 31.3295 29.7365C31.2461 30.195 31.1846 30.6578 31.1649 31.1229C31.1473 31.5548 31.1298 32.0531 31.2637 32.4694C31.279 32.5182 31.3032 32.5735 31.3514 32.5935C31.4063 32.6156 31.4656 32.5846 31.5161 32.5447L31.5117 32.5381Z" fill="#252528"/>
<path d="M42.8521 12.4776C42.2749 11.8973 42.2003 10.8808 42.6897 10.2208C43.3328 9.35487 44.6014 9.27292 45.4376 8.59745C41.1731 8.44463 36.8845 9.04703 32.8241 10.367C31.8167 10.6947 30.8225 11.0668 29.8722 11.5363C29.4178 11.76 28.9657 12.0014 28.5421 12.2827C28.1514 12.5418 27.7081 12.781 27.4074 13.1486C27.3196 13.2549 27.245 13.3767 27.2121 13.5118C27.0979 13.9813 27.6159 14.36 27.5984 14.8273C27.1374 14.6967 26.749 14.3268 26.5931 13.8684C26.242 12.8275 27.1572 11.904 27.8705 11.2905C28.6892 10.5884 29.6483 10.0702 30.6316 9.64277C33.3377 8.46678 36.27 7.9109 39.1956 7.54769C41.7416 7.23321 44.3402 7.06046 46.8598 7.5499C47.1386 7.60306 47.4239 7.6695 47.6543 7.83781C47.8848 8.00613 48.0472 8.29847 47.9813 8.57751C47.9133 8.86321 47.6368 9.04481 47.3734 9.17326C46.2102 9.74022 44.8626 9.8731 43.7542 10.5397C43.4184 10.7413 43.1023 11.0004 42.9092 11.3436C42.7161 11.6869 42.6634 12.1276 42.8477 12.4776H42.8521Z" fill="#252528"/>
<path d="M24.8022 8.97837C24.8988 8.64174 24.9975 8.28961 24.8637 7.9419C24.7978 7.77137 24.6639 7.62742 24.4905 7.57427C24.0538 7.43917 23.7202 7.88654 23.5182 8.27632C22.6206 9.99712 22.1048 11.7999 21.4947 13.6447C21.1018 14.8295 20.7989 15.9546 20.5114 17.1682C20.2524 18.2557 19.8266 19.4316 19.324 20.4305C19.1638 20.7494 18.9004 21.0063 18.5888 21.1768C17.3948 21.8279 15.6104 22.7426 14.2584 23.3981C14.1246 23.4624 13.9775 23.3428 14.0126 23.1966C14.8181 19.9587 15.6587 16.1694 15.5139 13.0689C15.4524 11.7622 15.2483 10.4135 14.8225 9.18434C14.535 8.35162 13.9314 7.68057 13.0557 7.49232C12.237 7.31515 11.3679 7.54548 10.6348 7.92197C8.64637 8.94294 7.48313 11.3658 7.63237 13.5716C7.6653 14.0588 7.76406 14.5416 7.95281 14.9934C8.09108 15.3256 8.38299 16.0365 8.8 16.0543C8.8022 16.0321 8.79561 16.0144 8.78683 15.9945C7.73333 13.895 8.33251 11.2241 10.2464 9.82216C10.4439 9.67821 10.6524 9.54976 10.8719 9.44345C11.1331 9.315 11.4074 9.21756 11.6905 9.15112C12.8845 8.8765 13.2027 10.1123 13.3081 11.1177C13.7251 15.1263 13.0425 19.0175 12.2085 22.9308C12.158 23.1634 12.0944 23.3937 11.9912 23.6063C11.9605 23.6705 11.921 23.7259 11.8639 23.768C11.7871 23.8233 11.6905 23.8366 11.5984 23.8477C10.7161 23.9363 9.82277 23.593 9.1797 22.984C9.10727 22.9153 9.03484 22.8422 8.94486 22.8046C8.67051 22.6894 8.68587 22.9995 8.74074 23.1789C8.82414 23.4557 9.04801 23.7215 9.23237 23.9407C9.64499 24.4302 10.1695 24.8244 10.7556 25.0769C10.9706 25.1699 11.3591 25.2784 11.4272 25.5331C11.4952 25.7878 11.2626 26.1665 11.1945 26.4012C11.076 26.8087 10.9465 27.2118 10.8126 27.6149C10.2793 29.2072 9.64938 30.7664 9.12044 32.3609C9.05021 32.5735 9.0963 32.8171 9.2653 32.9633C9.54623 33.2069 9.84472 33.001 10.0444 32.7861C10.4746 32.3233 10.7578 31.743 11.0277 31.1694C11.6971 29.7454 12.3248 28.3014 12.9086 26.8375C12.9964 26.6161 13.0864 26.3924 13.1852 26.1731C13.4464 25.5973 13.9051 25.1344 14.4735 24.8687C14.8401 24.6981 15.2022 24.5232 15.5643 24.3504C16.6178 23.8521 18.0313 23.1589 19.2121 22.5964C18.6722 26.2661 18.7182 29.8827 19.8332 33.4638C19.9034 33.6919 20.1339 33.8514 20.3643 33.8005C20.687 33.7274 20.6936 33.3309 20.6519 33.0298C20.2151 29.7786 20.3226 26.4544 20.9657 23.2387C21.0623 22.7559 21.2005 22.2288 21.6044 21.9497C21.8195 21.8013 22.1377 21.6375 22.0565 21.3894C22.0236 21.2853 21.9248 21.2211 21.848 21.1458C21.4727 20.776 21.5912 20.1492 21.7361 19.6398C22.7567 16.0853 23.7772 12.5307 24.7978 8.97616L24.8022 8.97837Z" fill="#252528"/>
<path d="M5.91605 30.3389L0.609054 24.9861C-0.203018 24.1666 -0.203018 22.8356 0.609054 22.0162L5.91386 16.6633L6.84444 17.6023L1.53964 22.9552C1.24115 23.2564 1.24115 23.7458 1.53964 24.0448L6.84444 29.3977L5.91386 30.3367L5.91605 30.3389Z" fill="#252528"/>
<path d="M28.1449 7.90868L22.8401 2.55581C22.5416 2.25461 22.0565 2.25461 21.7602 2.55581L16.4554 7.90868L15.5248 6.96966L20.8274 1.61457C21.6395 0.795142 22.9586 0.795142 23.7706 1.61457L29.0754 6.96744L28.1449 7.90647V7.90868Z" fill="#252528"/>
<path d="M38.6798 30.3389L37.7493 29.3999L43.0541 24.047C43.3525 23.7458 43.3525 23.2564 43.0541 22.9574L37.7493 17.6045L38.6798 16.6655L43.9846 22.0184C44.7967 22.8378 44.7967 24.1688 43.9846 24.9883L38.6798 30.3411V30.3389Z" fill="#252528"/>
<path d="M22.2979 46.0011C21.7427 46.0011 21.2203 45.7819 20.8274 45.3854L19.0892 43.6314L20.0198 42.6924L21.758 44.4464C22.0565 44.7476 22.5416 44.7476 22.8379 44.4464L24.5761 42.6924L25.5067 43.6314L23.7685 45.3854C23.3756 45.7819 22.8532 46.0011 22.2979 46.0011Z" fill="#252528"/>
</svg>
