<svg width="24" height="15" viewBox="0 0 24 15" fill="none" xmlns="http://www.w3.org/2000/svg">
<path d="M15.1114 2.29014H8.89403V13.2906H15.1114V2.29014Z" fill="#FF5F00"/>
<path d="M9.28879 7.79037C9.28879 5.65247 10.2954 3.61175 11.9929 2.29014C8.91377 -0.100421 4.43329 0.424336 2.00554 3.4757C-0.40247 6.50763 0.130451 10.9 3.22928 13.2906C5.81494 15.2925 9.42695 15.2925 12.0126 13.2906C10.2954 11.969 9.28879 9.92827 9.28879 7.79037Z" fill="#EB001B"/>
<path d="M23.5 7.79037C23.5 11.658 20.3222 14.7871 16.3944 14.7871C14.7956 14.7871 13.2561 14.2624 12.0126 13.2906C15.0917 10.9 15.6246 6.50763 13.1969 3.45627C12.8416 3.02869 12.4468 2.62054 12.0126 2.29014C15.0917 -0.100421 19.5722 0.424336 21.9802 3.4757C22.9671 4.70014 23.5 6.2161 23.5 7.79037Z" fill="#F79E1B"/>
</svg>
