<?xml version="1.0" encoding="UTF-8"?>
<svg id="Layer_1" xmlns="http://www.w3.org/2000/svg" version="1.1" viewBox="0 0 23 14">
  <!-- Generator: Adobe Illustrator 29.5.1, SVG Export Plug-In . SVG Version: 2.1.0 Build 141)  -->
  <defs>
    <style>
      .st0 {
        fill: #f79e1b;
      }

      .st1 {
        fill: #eb001b;
      }

      .st2 {
        fill: #ff5f00;
      }
    </style>
  </defs>
  <path class="st2" d="M14.61,1.79h-6.22v11h6.22V1.79Z"/>
  <g>
    <path class="st1" d="M8.79,7c0-2.14,1.01-4.18,2.7-5.5C8.41-.89,3.93-.37,1.51,2.68-.9,5.72-.37,10.11,2.73,12.5c2.59,2,6.2,2,8.78,0-1.72-1.32-2.72-3.36-2.72-5.5Z"/>
    <path class="st0" d="M23,7c0,3.87-3.18,7-7.11,7-1.6,0-3.14-.52-4.38-1.5,3.08-2.39,3.61-6.78,1.18-9.83-.36-.43-.75-.84-1.18-1.17,3.08-2.39,7.56-1.87,9.97,1.19.99,1.22,1.52,2.74,1.52,4.31Z"/>
  </g>
</svg>