<?xml version="1.0" encoding="UTF-8"?>
<svg id="Layer_1" xmlns="http://www.w3.org/2000/svg" version="1.1" viewBox="0 0 32 32">
  <!-- Generator: Adobe Illustrator 29.5.1, SVG Export Plug-In . SVG Version: 2.1.0 Build 141)  -->
  <defs>
    <style>
      .st0 {
        fill: #ac5fd9;
      }
    </style>
  </defs>
  <path class="st0" d="M25.33,16h-3.49l.72-5.77c.13-.58.12-1.19-.02-1.77-.14-.58-.4-1.13-.78-1.59-.37-.47-.85-.84-1.38-1.1-.54-.26-1.13-.4-1.72-.4h-3.16c.15-1.03.06-2.68,1.51-2.68h4.31c.35,0,.69-.14.94-.39.25-.25.39-.59.39-.94s-.14-.69-.39-.94c-.25-.25-.59-.39-.94-.39h-4.31c-.97,0-1.92.36-2.65,1-.73.65-1.2,1.53-1.32,2.5l-.23,1.85H4c-.59,0-1.16.14-1.69.39-.53.25-1,.62-1.37,1.07-.37.45-.64.98-.79,1.54-.15.57-.17,1.16-.07,1.73l2.02,16.08c.2,1.61.99,3.09,2.2,4.17s2.78,1.67,4.41,1.67l16.63-.02c.88,0,1.74-.17,2.55-.51.81-.34,1.54-.83,2.16-1.45.62-.62,1.11-1.35,1.45-2.16.34-.81.51-1.68.51-2.55v-2.66c0-.88-.17-1.74-.51-2.55-.34-.81-.83-1.54-1.45-2.16-.62-.62-1.35-1.11-2.16-1.45-.81-.34-1.68-.51-2.55-.51ZM29.33,22.67H13.33c0-1.06.42-2.08,1.17-2.83.75-.75,1.77-1.17,2.83-1.17h8c1.06,0,2.08.42,2.83,1.17.75.75,1.17,1.77,1.17,2.83ZM18.67,8.02c.21,0,.42.05.61.15s.35.23.47.4c.12.17.21.37.24.57s.02.42-.04.62l-.12.9h-4.99l.33-2.65h3.49ZM2.97,8.52c.12-.15.28-.28.46-.37.18-.09.38-.13.57-.13h8.49l-.33,2.65H2.83l-.13-1.03c-.04-.19-.04-.4,0-.59.05-.19.14-.37.26-.53ZM4.74,25.84l-1.57-12.51h16.33l-.33,2.67h-1.83c-1.77,0-3.46.7-4.71,1.95s-1.95,2.95-1.95,4.71c-.06,2.18-.13,4.99,1.38,6.68h-3.34c-.97,0-1.92-.36-2.65-1-.73-.65-1.2-1.53-1.32-2.5ZM25.33,29.33h-8c-1.06,0-2.08-.42-2.83-1.17-.75-.75-1.17-1.77-1.17-2.83h4.93c.52.25,3.83,2.81,4.4,2.67.55.16,3.91-2.43,4.4-2.67h2.27c0,1.06-.42,2.08-1.17,2.83s-1.77,1.17-2.83,1.17Z"/>
</svg>