<?xml version="1.0" encoding="UTF-8"?>
<svg id="Layer_1" xmlns="http://www.w3.org/2000/svg" version="1.1" viewBox="0 0 180 180">
  <!-- Generator: Adobe Illustrator 29.5.1, SVG Export Plug-In . SVG Version: 2.1.0 Build 141)  -->
  <defs>
    <style>
      .st0 {
        fill: #010101;
      }
    </style>
  </defs>
  <polygon class="st0" points="79.19 7.2 72 7.2 72 14.4 79.19 14.4 86.39 14.4 86.39 7.2 86.39 0 79.19 0 79.19 7.2"/>
  <polygon class="st0" points="64.8 7.2 64.8 0 57.6 0 57.6 7.2 57.6 14.4 57.6 21.59 64.8 21.59 72 21.59 72 14.4 64.8 14.4 64.8 7.2"/>
  <rect class="st0" x="115.2" y="7.2" width="7.2" height="7.2"/>
  <polygon class="st0" points="100.8 21.59 100.8 14.4 100.8 7.2 100.8 0 93.6 0 93.6 7.2 93.6 14.4 86.4 14.4 86.4 21.59 93.6 21.59 100.8 21.59"/>
  <rect class="st0" x="107.99" y="14.4" width="7.2" height="7.2"/>
  <rect class="st0" x="72" y="21.6" width="7.2" height="7.2"/>
  <rect class="st0" x="93.6" y="21.6" width="7.2" height="7.2"/>
  <polygon class="st0" points="57.6 28.8 57.6 36 64.8 36 72 36 72 28.8 64.8 28.8 57.6 28.8"/>
  <rect class="st0" x="79.19" y="28.8" width="7.2" height="7.2"/>
  <rect class="st0" x="57.6" y="43.2" width="7.2" height="7.2"/>
  <rect class="st0" x="72" y="43.2" width="7.2" height="7.2"/>
  <polygon class="st0" points="93.6 43.2 100.8 43.2 100.8 36 93.6 36 86.4 36 86.4 43.2 86.4 50.39 93.6 50.39 93.6 43.2"/>
  <rect class="st0" x="100.8" y="43.2" width="7.2" height="7.2"/>
  <polygon class="st0" points="122.4 43.2 122.4 36 122.4 28.8 115.2 28.8 115.2 36 115.2 43.2 115.2 50.39 122.4 50.39 122.4 43.2"/>
  <polygon class="st0" points="72 50.4 72 57.6 64.8 57.6 57.6 57.6 50.4 57.6 50.4 64.8 50.4 72 50.4 79.19 50.4 86.39 57.6 86.39 57.6 79.19 64.8 79.19 64.8 86.39 72 86.39 72 79.19 72 72 64.8 72 64.8 64.8 72 64.8 79.19 64.8 79.19 72 79.19 79.19 86.39 79.19 86.39 72 86.39 64.8 86.39 57.6 86.39 50.4 79.19 50.4 72 50.4"/>
  <rect class="st0" x="93.6" y="50.4" width="7.2" height="7.2"/>
  <rect class="st0" y="57.6" width="7.2" height="7.2"/>
  <polygon class="st0" points="36 57.6 28.8 57.6 21.6 57.6 21.6 64.8 21.6 72 21.6 79.19 28.8 79.19 28.8 72 28.8 64.8 36 64.8 43.2 64.8 50.39 64.8 50.39 57.6 43.2 57.6 36 57.6"/>
  <rect class="st0" x="86.4" y="57.6" width="7.2" height="7.2"/>
  <polygon class="st0" points="129.6 57.6 122.4 57.6 115.2 57.6 115.2 64.8 122.4 64.8 122.4 72 129.6 72 129.6 64.8 129.6 57.6"/>
  <polygon class="st0" points="143.99 64.8 136.79 64.8 136.79 72 129.6 72 129.6 79.19 136.79 79.19 136.79 86.39 143.99 86.39 143.99 79.19 143.99 72 151.19 72 151.19 64.8 151.19 57.6 143.99 57.6 143.99 64.8"/>
  <polygon class="st0" points="165.6 57.6 158.4 57.6 158.4 64.8 151.2 64.8 151.2 72 151.2 79.19 151.2 86.39 158.4 86.39 165.6 86.39 172.79 86.39 179.99 86.39 179.99 79.19 179.99 72 172.79 72 172.79 79.19 165.6 79.19 158.4 79.19 158.4 72 165.6 72 172.79 72 172.79 64.8 179.99 64.8 179.99 57.6 172.79 57.6 165.6 57.6"/>
  <polygon class="st0" points="100.8 64.8 93.6 64.8 93.6 72 93.6 79.19 100.8 79.19 100.8 72 107.99 72 107.99 79.19 115.19 79.19 115.19 72 115.19 64.8 107.99 64.8 100.8 64.8"/>
  <rect class="st0" x="43.2" y="72" width="7.2" height="7.2"/>
  <rect class="st0" x="115.2" y="72" width="7.2" height="7.2"/>
  <polygon class="st0" points="7.2 79.19 14.4 79.19 14.4 86.39 21.59 86.39 21.59 79.19 21.59 72 21.59 64.8 14.4 64.8 14.4 72 7.2 72 0 72 0 79.19 0 86.39 7.2 86.39 7.2 79.19"/>
  <rect class="st0" x="36" y="79.19" width="7.2" height="7.2"/>
  <rect class="st0" x="14.4" y="86.4" width="7.2" height="7.2"/>
  <polygon class="st0" points="36 86.4 36 93.6 36 100.8 43.2 100.8 43.2 93.6 50.39 93.6 50.39 86.4 43.2 86.4 36 86.4"/>
  <rect class="st0" x="86.4" y="86.4" width="7.2" height="7.2"/>
  <polygon class="st0" points="107.99 93.6 100.8 93.6 100.8 100.8 100.8 107.99 100.8 115.19 107.99 115.19 107.99 107.99 115.19 107.99 115.19 100.8 115.19 93.6 115.19 86.4 107.99 86.4 107.99 93.6"/>
  <rect class="st0" x="129.6" y="86.4" width="7.2" height="7.2"/>
  <rect class="st0" x="172.79" y="86.4" width="7.2" height="7.2"/>
  <rect class="st0" x="50.4" y="93.6" width="7.2" height="7.2"/>
  <polygon class="st0" points="79.19 93.6 72 93.6 64.8 93.6 64.8 100.8 57.6 100.8 57.6 107.99 57.6 115.19 64.8 115.19 72 115.19 79.19 115.19 86.39 115.19 86.39 107.99 86.39 100.8 79.19 100.8 79.19 93.6"/>
  <polygon class="st0" points="143.99 100.8 143.99 107.99 151.19 107.99 151.19 100.8 151.19 93.6 143.99 93.6 143.99 100.8"/>
  <polygon class="st0" points="165.6 100.8 158.4 100.8 151.2 100.8 151.2 107.99 151.2 115.19 158.4 115.19 165.6 115.19 165.6 107.99 172.79 107.99 172.79 115.19 179.99 115.19 179.99 107.99 179.99 100.8 172.79 100.8 172.79 93.6 165.6 93.6 165.6 100.8"/>
  <rect class="st0" x="21.6" y="100.8" width="7.2" height="7.2"/>
  <rect class="st0" x="43.2" y="100.8" width="7.2" height="7.2"/>
  <rect class="st0" x="86.4" y="100.8" width="7.2" height="7.2"/>
  <polygon class="st0" points="129.6 100.8 129.6 93.6 122.4 93.6 122.4 86.4 115.2 86.4 115.2 93.6 115.2 100.8 115.2 107.99 115.2 115.19 122.4 115.19 129.6 115.19 129.6 107.99 136.79 107.99 136.79 100.8 129.6 100.8"/>
  <polygon class="st0" points="7.2 107.99 14.4 107.99 14.4 115.19 21.59 115.19 21.59 107.99 21.59 100.8 14.4 100.8 7.2 100.8 7.2 93.6 0 93.6 0 100.8 0 107.99 0 115.19 7.2 115.19 7.2 107.99"/>
  <rect class="st0" x="136.79" y="107.99" width="7.2" height="7.2"/>
  <rect class="st0" y="115.2" width="7.2" height="7.2"/>
  <polygon class="st0" points="36 115.2 28.8 115.2 28.8 122.4 36 122.4 43.2 122.4 50.39 122.4 50.39 115.2 43.2 115.2 36 115.2"/>
  <rect class="st0" x="50.4" y="115.2" width="7.2" height="7.2"/>
  <rect class="st0" x="93.6" y="115.2" width="7.2" height="7.2"/>
  <path class="st0" d="M136.79,115.2h-21.59v35.99h35.99v-35.99h-14.4ZM143.99,129.6v14.4h-21.59v-21.59h21.59v7.2Z"/>
  <polygon class="st0" points="172.79 115.2 165.6 115.2 158.4 115.2 158.4 122.4 158.4 129.6 165.6 129.6 172.79 129.6 172.79 122.4 172.79 115.2"/>
  <polygon class="st0" points="72 122.4 64.8 122.4 57.6 122.4 57.6 129.6 57.6 136.79 57.6 143.99 57.6 151.19 64.8 151.19 64.8 143.99 64.8 136.79 72 136.79 72 129.6 79.19 129.6 79.19 136.79 86.39 136.79 86.39 129.6 86.39 122.4 79.19 122.4 72 122.4"/>
  <rect class="st0" x="86.4" y="122.4" width="7.2" height="7.2"/>
  <polygon class="st0" points="100.8 129.6 93.6 129.6 93.6 136.79 86.4 136.79 86.4 143.99 86.4 151.19 93.6 151.19 93.6 143.99 100.8 143.99 100.8 136.79 100.8 129.6"/>
  <rect class="st0" x="129.6" y="129.6" width="7.2" height="7.2"/>
  <rect class="st0" x="172.79" y="129.6" width="7.2" height="7.2"/>
  <polygon class="st0" points="72 143.99 72 151.19 79.19 151.19 79.19 143.99 79.19 136.79 72 136.79 72 143.99"/>
  <polygon class="st0" points="107.99 143.99 100.8 143.99 100.8 151.19 107.99 151.19 115.19 151.19 115.19 143.99 115.19 136.79 107.99 136.79 107.99 143.99"/>
  <polygon class="st0" points="165.6 143.99 165.6 151.19 172.79 151.19 179.99 151.19 179.99 143.99 172.79 143.99 172.79 136.79 165.6 136.79 165.6 143.99"/>
  <polygon class="st0" points="64.8 151.2 57.6 151.2 57.6 158.4 64.8 158.4 72 158.4 72 151.2 64.8 151.2"/>
  <rect class="st0" x="115.2" y="151.2" width="7.2" height="7.2"/>
  <rect class="st0" x="129.6" y="151.2" width="7.2" height="7.2"/>
  <polygon class="st0" points="165.6 151.2 165.6 158.4 158.4 158.4 151.2 158.4 151.2 165.59 158.4 165.59 158.4 172.79 165.6 172.79 172.79 172.79 172.79 179.99 179.99 179.99 179.99 172.79 179.99 165.59 179.99 158.4 179.99 151.2 172.79 151.2 165.6 151.2"/>
  <rect class="st0" x="72" y="158.4" width="7.2" height="7.2"/>
  <rect class="st0" x="86.4" y="158.4" width="7.2" height="7.2"/>
  <rect class="st0" x="122.4" y="158.4" width="7.2" height="7.2"/>
  <polygon class="st0" points="143.99 165.59 136.79 165.59 136.79 172.79 143.99 172.79 151.19 172.79 151.19 165.59 151.19 158.4 143.99 158.4 143.99 165.59"/>
  <polygon class="st0" points="64.8 172.79 57.6 172.79 57.6 179.99 64.8 179.99 72 179.99 72 172.79 72 165.59 64.8 165.59 64.8 172.79"/>
  <rect class="st0" x="107.99" y="165.59" width="7.2" height="7.2"/>
  <polygon class="st0" points="93.6 172.79 86.4 172.79 86.4 179.99 93.6 179.99 100.8 179.99 107.99 179.99 107.99 172.79 100.8 172.79 93.6 172.79"/>
  <polygon class="st0" points="115.2 172.79 115.2 179.99 122.4 179.99 129.6 179.99 129.6 172.79 122.4 172.79 115.2 172.79"/>
  <rect class="st0" x="151.2" y="172.79" width="7.2" height="7.2"/>
  <path class="st0" d="M33.19,0h-15.98C7.72,0,0,7.63,0,17.02v16.36c0,9.38,7.72,17.02,17.2,17.02h33.19V17C50.39,7.63,42.67,0,33.19,0ZM42.84,42.84h-25.63c-5.32,0-9.65-4.25-9.65-9.46v-16.36c0-5.21,4.32-9.45,9.65-9.45h15.98c5.32,0,9.65,4.24,9.65,9.45v25.82Z"/>
  <path class="st0" d="M162.8.01h-15.98c-9.48,0-17.21,7.63-17.21,17v33.39h33.19c9.48,0,17.2-7.64,17.2-17.03v-16.36C180,7.64,172.28.01,162.8.01ZM172.43,33.38c0,5.21-4.33,9.46-9.65,9.46h-25.63v-25.82c0-5.21,4.33-9.45,9.65-9.45h15.98c5.32,0,9.65,4.24,9.65,9.45v16.36Z"/>
  <path class="st0" d="M0,146.62v16.36c0,9.38,7.72,17.02,17.2,17.02h15.98c9.48,0,17.2-7.63,17.2-17.01v-33.39H17.2c-9.48,0-17.2,7.63-17.2,17.02ZM42.84,162.98c0,5.21-4.32,9.45-9.65,9.45h-15.98c-5.32,0-9.65-4.24-9.65-9.45v-16.36c0-5.21,4.32-9.46,9.65-9.46h25.63v25.82Z"/>
  <path class="st0" d="M30.02,14.4h-9.66c-3.29,0-5.97,2.63-5.97,5.87v9.85h-.01c0,3.23,2.67,5.87,5.97,5.87h15.64v-15.72c0-3.24-2.67-5.87-5.97-5.87Z"/>
  <path class="st0" d="M165.6,20.27c0-3.24-2.67-5.87-5.97-5.87h-9.66c-3.29,0-5.97,2.63-5.97,5.87v15.72h15.64c3.29,0,5.97-2.64,5.97-5.88h0s0-9.84,0-9.84Z"/>
  <path class="st0" d="M14.38,149.88h.01s0,9.84,0,9.84c0,3.24,2.67,5.87,5.97,5.87h9.66c3.29,0,5.97-2.63,5.97-5.87v-15.72h-15.64c-3.29,0-5.97,2.64-5.97,5.88Z"/>
</svg>