<svg width="180" height="180" viewBox="0 0 180 180" fill="none" xmlns="http://www.w3.org/2000/svg">
<path d="M64.7983 0H57.6008V7.19748H64.7983V0Z" fill="#010101"/>
<path d="M86.3907 0H79.1933V7.19748H86.3907V0Z" fill="#010101"/>
<path d="M100.796 0H93.5987V7.19748H100.796V0Z" fill="#010101"/>
<path d="M64.7983 7.19748H57.6008V14.395H64.7983V7.19748Z" fill="#010101"/>
<path d="M79.1933 7.19748H71.9958V14.395H79.1933V7.19748Z" fill="#010101"/>
<path d="M86.3907 7.19748H79.1933V14.395H86.3907V7.19748Z" fill="#010101"/>
<path d="M100.796 7.19748H93.5987V14.395H100.796V7.19748Z" fill="#010101"/>
<path d="M122.399 7.19748H115.202V14.395H122.399V7.19748Z" fill="#010101"/>
<path d="M64.7983 14.395H57.6008V21.5924H64.7983V14.395Z" fill="#010101"/>
<path d="M71.9958 14.395H64.7983V21.5924H71.9958V14.395Z" fill="#010101"/>
<path d="M93.5987 14.395H86.4013V21.5924H93.5987V14.395Z" fill="#010101"/>
<path d="M100.796 14.395H93.5987V21.5924H100.796V14.395Z" fill="#010101"/>
<path d="M115.191 14.395H107.994V21.5924H115.191V14.395Z" fill="#010101"/>
<path d="M79.1933 21.6029H71.9958V28.8004H79.1933V21.6029Z" fill="#010101"/>
<path d="M100.796 21.6029H93.5987V28.8004H100.796V21.6029Z" fill="#010101"/>
<path d="M64.7983 28.8004H57.6008V35.9979H64.7983V28.8004Z" fill="#010101"/>
<path d="M71.9958 28.8004H64.7983V35.9979H71.9958V28.8004Z" fill="#010101"/>
<path d="M86.3907 28.8004H79.1933V35.9979H86.3907V28.8004Z" fill="#010101"/>
<path d="M122.399 28.8004H115.202V35.9979H122.399V28.8004Z" fill="#010101"/>
<path d="M93.5987 35.9979H86.4013V43.1954H93.5987V35.9979Z" fill="#010101"/>
<path d="M100.796 35.9979H93.5987V43.1954H100.796V35.9979Z" fill="#010101"/>
<path d="M122.399 35.9979H115.202V43.1954H122.399V35.9979Z" fill="#010101"/>
<path d="M64.7983 43.1954H57.6008V50.3928H64.7983V43.1954Z" fill="#010101"/>
<path d="M79.1933 43.1954H71.9958V50.3928H79.1933V43.1954Z" fill="#010101"/>
<path d="M93.5987 43.1954H86.4013V50.3928H93.5987V43.1954Z" fill="#010101"/>
<path d="M107.994 43.1954H100.796V50.3928H107.994V43.1954Z" fill="#010101"/>
<path d="M122.399 43.1954H115.202V50.3928H122.399V43.1954Z" fill="#010101"/>
<path d="M79.1933 50.4034H71.9958V57.6008H79.1933V50.4034Z" fill="#010101"/>
<path d="M86.3907 50.4034H79.1933V57.6008H86.3907V50.4034Z" fill="#010101"/>
<path d="M100.796 50.4034H93.5987V57.6008H100.796V50.4034Z" fill="#010101"/>
<path d="M7.19748 57.6008H0V64.7983H7.19748V57.6008Z" fill="#010101"/>
<path d="M28.8004 57.6008H21.6029V64.7983H28.8004V57.6008Z" fill="#010101"/>
<path d="M35.9979 57.6008H28.8004V64.7983H35.9979V57.6008Z" fill="#010101"/>
<path d="M43.1954 57.6008H35.9979V64.7983H43.1954V57.6008Z" fill="#010101"/>
<path d="M50.3928 57.6008H43.1954V64.7983H50.3928V57.6008Z" fill="#010101"/>
<path d="M57.6008 57.6008H50.4034V64.7983H57.6008V57.6008Z" fill="#010101"/>
<path d="M64.7983 57.6008H57.6008V64.7983H64.7983V57.6008Z" fill="#010101"/>
<path d="M71.9958 57.6008H64.7983V64.7983H71.9958V57.6008Z" fill="#010101"/>
<path d="M79.1933 57.6008H71.9958V64.7983H79.1933V57.6008Z" fill="#010101"/>
<path d="M86.3907 57.6008H79.1933V64.7983H86.3907V57.6008Z" fill="#010101"/>
<path d="M93.5987 57.6008H86.4013V64.7983H93.5987V57.6008Z" fill="#010101"/>
<path d="M122.399 57.6008H115.202V64.7983H122.399V57.6008Z" fill="#010101"/>
<path d="M129.597 57.6008H122.399V64.7983H129.597V57.6008Z" fill="#010101"/>
<path d="M151.189 57.6008H143.992V64.7983H151.189V57.6008Z" fill="#010101"/>
<path d="M165.595 57.6008H158.397V64.7983H165.595V57.6008Z" fill="#010101"/>
<path d="M172.792 57.6008H165.595V64.7983H172.792V57.6008Z" fill="#010101"/>
<path d="M179.989 57.6008H172.792V64.7983H179.989V57.6008Z" fill="#010101"/>
<path d="M21.5924 64.7983H14.395V71.9958H21.5924V64.7983Z" fill="#010101"/>
<path d="M28.8004 64.7983H21.6029V71.9958H28.8004V64.7983Z" fill="#010101"/>
<path d="M57.6008 64.7983H50.4034V71.9958H57.6008V64.7983Z" fill="#010101"/>
<path d="M64.7983 64.7983H57.6008V71.9958H64.7983V64.7983Z" fill="#010101"/>
<path d="M86.3907 64.7983H79.1933V71.9958H86.3907V64.7983Z" fill="#010101"/>
<path d="M100.796 64.7983H93.5987V71.9958H100.796V64.7983Z" fill="#010101"/>
<path d="M107.994 64.7983H100.796V71.9958H107.994V64.7983Z" fill="#010101"/>
<path d="M115.191 64.7983H107.994V71.9958H115.191V64.7983Z" fill="#010101"/>
<path d="M129.597 64.7983H122.399V71.9958H129.597V64.7983Z" fill="#010101"/>
<path d="M143.992 64.7983H136.794V71.9958H143.992V64.7983Z" fill="#010101"/>
<path d="M151.189 64.7983H143.992V71.9958H151.189V64.7983Z" fill="#010101"/>
<path d="M158.397 64.7983H151.2V71.9958H158.397V64.7983Z" fill="#010101"/>
<path d="M165.595 64.7983H158.397V71.9958H165.595V64.7983Z" fill="#010101"/>
<path d="M172.792 64.7983H165.595V71.9958H172.792V64.7983Z" fill="#010101"/>
<path d="M7.19748 71.9958H0V79.1933H7.19748V71.9958Z" fill="#010101"/>
<path d="M14.395 71.9958H7.19748V79.1933H14.395V71.9958Z" fill="#010101"/>
<path d="M21.5924 71.9958H14.395V79.1933H21.5924V71.9958Z" fill="#010101"/>
<path d="M28.8004 71.9958H21.6029V79.1933H28.8004V71.9958Z" fill="#010101"/>
<path d="M50.3928 71.9958H43.1954V79.1933H50.3928V71.9958Z" fill="#010101"/>
<path d="M57.6008 71.9958H50.4034V79.1933H57.6008V71.9958Z" fill="#010101"/>
<path d="M64.7983 71.9958H57.6008V79.1933H64.7983V71.9958Z" fill="#010101"/>
<path d="M71.9958 71.9958H64.7983V79.1933H71.9958V71.9958Z" fill="#010101"/>
<path d="M86.3907 71.9958H79.1933V79.1933H86.3907V71.9958Z" fill="#010101"/>
<path d="M100.796 71.9958H93.5987V79.1933H100.796V71.9958Z" fill="#010101"/>
<path d="M115.191 71.9958H107.994V79.1933H115.191V71.9958Z" fill="#010101"/>
<path d="M122.399 71.9958H115.202V79.1933H122.399V71.9958Z" fill="#010101"/>
<path d="M136.794 71.9958H129.597V79.1933H136.794V71.9958Z" fill="#010101"/>
<path d="M143.992 71.9958H136.794V79.1933H143.992V71.9958Z" fill="#010101"/>
<path d="M158.397 71.9958H151.2V79.1933H158.397V71.9958Z" fill="#010101"/>
<path d="M179.989 71.9958H172.792V79.1933H179.989V71.9958Z" fill="#010101"/>
<path d="M7.19748 79.1933H0V86.3907H7.19748V79.1933Z" fill="#010101"/>
<path d="M21.5924 79.1933H14.395V86.3907H21.5924V79.1933Z" fill="#010101"/>
<path d="M43.1954 79.1933H35.9979V86.3907H43.1954V79.1933Z" fill="#010101"/>
<path d="M57.6008 79.1933H50.4034V86.3907H57.6008V79.1933Z" fill="#010101"/>
<path d="M71.9958 79.1933H64.7983V86.3907H71.9958V79.1933Z" fill="#010101"/>
<path d="M143.992 79.1933H136.794V86.3907H143.992V79.1933Z" fill="#010101"/>
<path d="M158.397 79.1933H151.2V86.3907H158.397V79.1933Z" fill="#010101"/>
<path d="M165.595 79.1933H158.397V86.3907H165.595V79.1933Z" fill="#010101"/>
<path d="M172.792 79.1933H165.595V86.3907H172.792V79.1933Z" fill="#010101"/>
<path d="M179.989 79.1933H172.792V86.3907H179.989V79.1933Z" fill="#010101"/>
<path d="M21.5924 86.4013H14.395V93.5987H21.5924V86.4013Z" fill="#010101"/>
<path d="M43.1954 86.4013H35.9979V93.5987H43.1954V86.4013Z" fill="#010101"/>
<path d="M50.3928 86.4013H43.1954V93.5987H50.3928V86.4013Z" fill="#010101"/>
<path d="M93.5987 86.4013H86.4013V93.5987H93.5987V86.4013Z" fill="#010101"/>
<path d="M115.191 86.4013H107.994V93.5987H115.191V86.4013Z" fill="#010101"/>
<path d="M122.399 86.4013H115.202V93.5987H122.399V86.4013Z" fill="#010101"/>
<path d="M136.794 86.4013H129.597V93.5987H136.794V86.4013Z" fill="#010101"/>
<path d="M179.989 86.4013H172.792V93.5987H179.989V86.4013Z" fill="#010101"/>
<path d="M7.19748 93.5987H0V100.796H7.19748V93.5987Z" fill="#010101"/>
<path d="M43.1954 93.5987H35.9979V100.796H43.1954V93.5987Z" fill="#010101"/>
<path d="M57.6008 93.5987H50.4034V100.796H57.6008V93.5987Z" fill="#010101"/>
<path d="M71.9958 93.5987H64.7983V100.796H71.9958V93.5987Z" fill="#010101"/>
<path d="M79.1933 93.5987H71.9958V100.796H79.1933V93.5987Z" fill="#010101"/>
<path d="M107.994 93.5987H100.796V100.796H107.994V93.5987Z" fill="#010101"/>
<path d="M115.191 93.5987H107.994V100.796H115.191V93.5987Z" fill="#010101"/>
<path d="M122.399 93.5987H115.202V100.796H122.399V93.5987Z" fill="#010101"/>
<path d="M129.597 93.5987H122.399V100.796H129.597V93.5987Z" fill="#010101"/>
<path d="M151.189 93.5987H143.992V100.796H151.189V93.5987Z" fill="#010101"/>
<path d="M172.792 93.5987H165.595V100.796H172.792V93.5987Z" fill="#010101"/>
<path d="M7.19748 100.796H0V107.994H7.19748V100.796Z" fill="#010101"/>
<path d="M14.395 100.796H7.19748V107.994H14.395V100.796Z" fill="#010101"/>
<path d="M21.5924 100.796H14.395V107.994H21.5924V100.796Z" fill="#010101"/>
<path d="M28.8004 100.796H21.6029V107.994H28.8004V100.796Z" fill="#010101"/>
<path d="M50.3928 100.796H43.1954V107.994H50.3928V100.796Z" fill="#010101"/>
<path d="M64.7983 100.796H57.6008V107.994H64.7983V100.796Z" fill="#010101"/>
<path d="M71.9958 100.796H64.7983V107.994H71.9958V100.796Z" fill="#010101"/>
<path d="M79.1933 100.796H71.9958V107.994H79.1933V100.796Z" fill="#010101"/>
<path d="M86.3907 100.796H79.1933V107.994H86.3907V100.796Z" fill="#010101"/>
<path d="M93.5987 100.796H86.4013V107.994H93.5987V100.796Z" fill="#010101"/>
<path d="M107.994 100.796H100.796V107.994H107.994V100.796Z" fill="#010101"/>
<path d="M115.191 100.796H107.994V107.994H115.191V100.796Z" fill="#010101"/>
<path d="M122.399 100.796H115.202V107.994H122.399V100.796Z" fill="#010101"/>
<path d="M129.597 100.796H122.399V107.994H129.597V100.796Z" fill="#010101"/>
<path d="M136.794 100.796H129.597V107.994H136.794V100.796Z" fill="#010101"/>
<path d="M151.189 100.796H143.992V107.994H151.189V100.796Z" fill="#010101"/>
<path d="M158.397 100.796H151.2V107.994H158.397V100.796Z" fill="#010101"/>
<path d="M165.595 100.796H158.397V107.994H165.595V100.796Z" fill="#010101"/>
<path d="M172.792 100.796H165.595V107.994H172.792V100.796Z" fill="#010101"/>
<path d="M179.989 100.796H172.792V107.994H179.989V100.796Z" fill="#010101"/>
<path d="M7.19748 107.994H0V115.191H7.19748V107.994Z" fill="#010101"/>
<path d="M21.5924 107.994H14.395V115.191H21.5924V107.994Z" fill="#010101"/>
<path d="M64.7983 107.994H57.6008V115.191H64.7983V107.994Z" fill="#010101"/>
<path d="M71.9958 107.994H64.7983V115.191H71.9958V107.994Z" fill="#010101"/>
<path d="M79.1933 107.994H71.9958V115.191H79.1933V107.994Z" fill="#010101"/>
<path d="M86.3907 107.994H79.1933V115.191H86.3907V107.994Z" fill="#010101"/>
<path d="M107.994 107.994H100.796V115.191H107.994V107.994Z" fill="#010101"/>
<path d="M122.399 107.994H115.202V115.191H122.399V107.994Z" fill="#010101"/>
<path d="M129.597 107.994H122.399V115.191H129.597V107.994Z" fill="#010101"/>
<path d="M143.992 107.994H136.794V115.191H143.992V107.994Z" fill="#010101"/>
<path d="M158.397 107.994H151.2V115.191H158.397V107.994Z" fill="#010101"/>
<path d="M165.595 107.994H158.397V115.191H165.595V107.994Z" fill="#010101"/>
<path d="M179.989 107.994H172.792V115.191H179.989V107.994Z" fill="#010101"/>
<path d="M7.19748 115.202H0V122.399H7.19748V115.202Z" fill="#010101"/>
<path d="M35.9979 115.202H28.8004V122.399H35.9979V115.202Z" fill="#010101"/>
<path d="M43.1954 115.202H35.9979V122.399H43.1954V115.202Z" fill="#010101"/>
<path d="M50.3928 115.202H43.1954V122.399H50.3928V115.202Z" fill="#010101"/>
<path d="M57.6008 115.202H50.4034V122.399H57.6008V115.202Z" fill="#010101"/>
<path d="M100.796 115.202H93.5987V122.399H100.796V115.202Z" fill="#010101"/>
<path d="M122.399 115.202H115.202V122.399H122.399V115.202Z" fill="#010101"/>
<path d="M129.597 115.202H122.399V122.399H129.597V115.202Z" fill="#010101"/>
<path d="M136.794 115.202H129.597V122.399H136.794V115.202Z" fill="#010101"/>
<path d="M143.992 115.202H136.794V122.399H143.992V115.202Z" fill="#010101"/>
<path d="M151.189 115.202H143.992V122.399H151.189V115.202Z" fill="#010101"/>
<path d="M165.595 115.202H158.397V122.399H165.595V115.202Z" fill="#010101"/>
<path d="M172.792 115.202H165.595V122.399H172.792V115.202Z" fill="#010101"/>
<path d="M64.7983 122.399H57.6008V129.597H64.7983V122.399Z" fill="#010101"/>
<path d="M71.9958 122.399H64.7983V129.597H71.9958V122.399Z" fill="#010101"/>
<path d="M79.1933 122.399H71.9958V129.597H79.1933V122.399Z" fill="#010101"/>
<path d="M86.3907 122.399H79.1933V129.597H86.3907V122.399Z" fill="#010101"/>
<path d="M93.5987 122.399H86.4013V129.597H93.5987V122.399Z" fill="#010101"/>
<path d="M122.399 122.399H115.202V129.597H122.399V122.399Z" fill="#010101"/>
<path d="M151.189 122.399H143.992V129.597H151.189V122.399Z" fill="#010101"/>
<path d="M165.595 122.399H158.397V129.597H165.595V122.399Z" fill="#010101"/>
<path d="M172.792 122.399H165.595V129.597H172.792V122.399Z" fill="#010101"/>
<path d="M64.7983 129.597H57.6008V136.794H64.7983V129.597Z" fill="#010101"/>
<path d="M71.9958 129.597H64.7983V136.794H71.9958V129.597Z" fill="#010101"/>
<path d="M86.3907 129.597H79.1933V136.794H86.3907V129.597Z" fill="#010101"/>
<path d="M100.796 129.597H93.5987V136.794H100.796V129.597Z" fill="#010101"/>
<path d="M122.399 129.597H115.202V136.794H122.399V129.597Z" fill="#010101"/>
<path d="M136.794 129.597H129.597V136.794H136.794V129.597Z" fill="#010101"/>
<path d="M151.189 129.597H143.992V136.794H151.189V129.597Z" fill="#010101"/>
<path d="M179.989 129.597H172.792V136.794H179.989V129.597Z" fill="#010101"/>
<path d="M64.7983 136.794H57.6008V143.992H64.7983V136.794Z" fill="#010101"/>
<path d="M79.1933 136.794H71.9958V143.992H79.1933V136.794Z" fill="#010101"/>
<path d="M93.5987 136.794H86.4013V143.992H93.5987V136.794Z" fill="#010101"/>
<path d="M100.796 136.794H93.5987V143.992H100.796V136.794Z" fill="#010101"/>
<path d="M115.191 136.794H107.994V143.992H115.191V136.794Z" fill="#010101"/>
<path d="M122.399 136.794H115.202V143.992H122.399V136.794Z" fill="#010101"/>
<path d="M151.189 136.794H143.992V143.992H151.189V136.794Z" fill="#010101"/>
<path d="M172.792 136.794H165.595V143.992H172.792V136.794Z" fill="#010101"/>
<path d="M64.7983 143.992H57.6008V151.189H64.7983V143.992Z" fill="#010101"/>
<path d="M79.1933 143.992H71.9958V151.189H79.1933V143.992Z" fill="#010101"/>
<path d="M93.5987 143.992H86.4013V151.189H93.5987V143.992Z" fill="#010101"/>
<path d="M107.994 143.992H100.796V151.189H107.994V143.992Z" fill="#010101"/>
<path d="M115.191 143.992H107.994V151.189H115.191V143.992Z" fill="#010101"/>
<path d="M122.399 143.992H115.202V151.189H122.399V143.992Z" fill="#010101"/>
<path d="M129.597 143.992H122.399V151.189H129.597V143.992Z" fill="#010101"/>
<path d="M136.794 143.992H129.597V151.189H136.794V143.992Z" fill="#010101"/>
<path d="M143.992 143.992H136.794V151.189H143.992V143.992Z" fill="#010101"/>
<path d="M151.189 143.992H143.992V151.189H151.189V143.992Z" fill="#010101"/>
<path d="M172.792 143.992H165.595V151.189H172.792V143.992Z" fill="#010101"/>
<path d="M179.989 143.992H172.792V151.189H179.989V143.992Z" fill="#010101"/>
<path d="M64.7983 151.2H57.6008V158.397H64.7983V151.2Z" fill="#010101"/>
<path d="M71.9958 151.2H64.7983V158.397H71.9958V151.2Z" fill="#010101"/>
<path d="M122.399 151.2H115.202V158.397H122.399V151.2Z" fill="#010101"/>
<path d="M136.794 151.2H129.597V158.397H136.794V151.2Z" fill="#010101"/>
<path d="M172.792 151.2H165.595V158.397H172.792V151.2Z" fill="#010101"/>
<path d="M179.989 151.2H172.792V158.397H179.989V151.2Z" fill="#010101"/>
<path d="M79.1933 158.397H71.9958V165.595H79.1933V158.397Z" fill="#010101"/>
<path d="M93.5987 158.397H86.4013V165.595H93.5987V158.397Z" fill="#010101"/>
<path d="M129.597 158.397H122.399V165.595H129.597V158.397Z" fill="#010101"/>
<path d="M151.189 158.397H143.992V165.595H151.189V158.397Z" fill="#010101"/>
<path d="M158.397 158.397H151.2V165.595H158.397V158.397Z" fill="#010101"/>
<path d="M165.595 158.397H158.397V165.595H165.595V158.397Z" fill="#010101"/>
<path d="M172.792 158.397H165.595V165.595H172.792V158.397Z" fill="#010101"/>
<path d="M179.989 158.397H172.792V165.595H179.989V158.397Z" fill="#010101"/>
<path d="M71.9958 165.595H64.7983V172.792H71.9958V165.595Z" fill="#010101"/>
<path d="M115.191 165.595H107.994V172.792H115.191V165.595Z" fill="#010101"/>
<path d="M143.992 165.595H136.794V172.792H143.992V165.595Z" fill="#010101"/>
<path d="M151.189 165.595H143.992V172.792H151.189V165.595Z" fill="#010101"/>
<path d="M165.595 165.595H158.397V172.792H165.595V165.595Z" fill="#010101"/>
<path d="M172.792 165.595H165.595V172.792H172.792V165.595Z" fill="#010101"/>
<path d="M179.989 165.595H172.792V172.792H179.989V165.595Z" fill="#010101"/>
<path d="M64.7983 172.792H57.6008V179.989H64.7983V172.792Z" fill="#010101"/>
<path d="M71.9958 172.792H64.7983V179.989H71.9958V172.792Z" fill="#010101"/>
<path d="M93.5987 172.792H86.4013V179.989H93.5987V172.792Z" fill="#010101"/>
<path d="M100.796 172.792H93.5987V179.989H100.796V172.792Z" fill="#010101"/>
<path d="M107.994 172.792H100.796V179.989H107.994V172.792Z" fill="#010101"/>
<path d="M122.399 172.792H115.202V179.989H122.399V172.792Z" fill="#010101"/>
<path d="M129.597 172.792H122.399V179.989H129.597V172.792Z" fill="#010101"/>
<path d="M158.397 172.792H151.2V179.989H158.397V172.792Z" fill="#010101"/>
<path d="M179.989 172.792H172.792V179.989H179.989V172.792Z" fill="#010101"/>
<path d="M0 33.3778V17.0151C0 7.6289 7.72361 0 17.2045 0H33.1884C42.6692 0 50.3928 7.6289 50.3928 17.0046V50.3928H17.2045C7.72361 50.3928 0 42.7534 0 33.3778ZM7.55524 33.3778C7.55524 38.5865 11.88 42.8376 17.2045 42.8376H42.8376V17.0151C42.8376 11.8064 38.5128 7.56577 33.1884 7.56577H17.2045C11.88 7.56577 7.55524 11.8064 7.55524 17.0151V33.3778Z" fill="#010101"/>
<path d="M180 33.3778V17.0151C180 7.63943 172.276 0.0105226 162.796 0.0105226H146.812C137.331 0.0105226 129.607 7.63943 129.607 17.0151V50.4034H162.796C172.276 50.4034 180 42.7639 180 33.3778ZM172.434 33.3778C172.434 38.5865 168.109 42.8376 162.785 42.8376H137.152V17.0151C137.152 11.8064 141.477 7.56577 146.801 7.56577H162.785C168.109 7.56577 172.434 11.8064 172.434 17.0151V33.3778Z" fill="#010101"/>
<path d="M0 146.622V162.985C0 172.361 7.72361 180 17.2045 180H33.1884C42.6692 180 50.3928 172.371 50.3928 162.995V129.607H17.2045C7.72361 129.607 0 137.236 0 146.622ZM7.55524 146.622C7.55524 141.414 11.88 137.162 17.2045 137.162H42.8376V162.985C42.8376 168.194 38.5128 172.434 33.1884 172.434H17.2045C11.88 172.434 7.55524 168.194 7.55524 162.985V146.622Z" fill="#010101"/>
<path d="M14.395 30.1158V20.2666C14.395 17.0256 17.0677 14.395 20.3613 14.395H30.021C33.3146 14.395 35.9874 17.0256 35.9874 20.2666V35.9874H20.3508C17.0572 35.9874 14.3844 33.3462 14.3844 30.1052L14.395 30.1158Z" fill="#010101"/>
<path d="M165.595 30.1158V20.2666C165.595 17.0256 162.922 14.395 159.628 14.395H149.968C146.675 14.395 144.002 17.0256 144.002 20.2666V35.9874H159.639C162.932 35.9874 165.605 33.3462 165.605 30.1052L165.595 30.1158Z" fill="#010101"/>
<path d="M14.395 149.874V159.723C14.395 162.964 17.0677 165.595 20.3613 165.595H30.021C33.3146 165.595 35.9874 162.964 35.9874 159.723V144.002H20.3508C17.0572 144.002 14.3844 146.643 14.3844 149.884L14.395 149.874Z" fill="#010101"/>
</svg>
