<?xml version="1.0" encoding="UTF-8"?>
<svg id="Layer_1" xmlns="http://www.w3.org/2000/svg" version="1.1" viewBox="0 0 810 810">
  <!-- Generator: Adobe Illustrator 29.5.1, SVG Export Plug-In . SVG Version: 2.1.0 Build 141)  -->
  <defs>
    <style>
      .st0 {
        fill: #c67aec;
      }

      .st1 {
        fill: #9fe8c1;
      }
    </style>
  </defs>
  <path class="st1" d="M652.46,772.49h-7.92l-15.99-1.3c-41.87-5.37-80.52-27.58-105.83-61.22-7.34-9.75-12.91-20.65-20.86-29.97-54.03-63.35-152.55-58.86-200.69,8.87-4.24,5.96-7.77,12.41-12.07,18.35-26.17,36.18-67.15,59.94-111.78,64.44l-11.04.84h-9.16l-15.15-1.3c-68.73-8.58-124.97-63.32-135.17-131.87l-1.74-15.55c.2-5.39-.27-10.86,0-16.25,3.62-73.01,59.31-135.47,131.55-146.94,15.7-2.49,31.15-1.49,46.82-4.83,74.34-15.86,118.14-94.18,92.83-166.31-5.33-15.19-14.32-28.3-19.6-43.73-32.59-95.26,31.42-196.33,131.07-207.22,116.99-12.79,205.75,102.85,163.36,212.94-5.36,13.92-13.6,26.21-18.23,40.51-25.45,78.48,28.48,159.44,110.2,166.44,7.75.66,15.52.4,23.27,1.31,69.46,8.1,126.46,62.6,136.83,131.87,14.13,94.38-56.37,177.12-150.73,180.95l.03-.03h0ZM517.67,194.49c0-62.23-50.44-112.67-112.67-112.67s-112.67,50.45-112.67,112.67,50.44,112.67,112.67,112.67,112.67-50.45,112.67-112.67ZM524.47,479.79c0-66.02-53.52-119.54-119.53-119.54s-119.53,53.52-119.53,119.54,53.52,119.54,119.53,119.54,119.53-53.52,119.53-119.54ZM274.63,615.48c0-62.23-50.44-112.68-112.67-112.68s-112.67,50.45-112.67,112.68,50.44,112.68,112.67,112.68,112.67-50.45,112.67-112.68ZM760.72,615.48c0-62.23-50.44-112.68-112.67-112.68s-112.67,50.45-112.67,112.68,50.44,112.68,112.67,112.68,112.67-50.45,112.67-112.68Z"/>
  <path class="st0" d="M744.17,615.49c0,53.09-43.03,96.13-96.12,96.13s-96.12-43.04-96.12-96.13,43.03-96.13,96.12-96.13,96.12,43.04,96.12,96.13ZM696.08,615.47c0-26.53-21.5-48.03-48.03-48.03s-48.03,21.5-48.03,48.03,21.5,48.03,48.03,48.03,48.03-21.5,48.03-48.03h0Z"/>
  <path class="st0" d="M258.08,615.49c0,53.09-43.04,96.13-96.12,96.13s-96.12-43.04-96.12-96.13,43.04-96.13,96.12-96.13,96.12,43.04,96.12,96.13ZM209.98,615.47c0-26.53-21.5-48.03-48.03-48.03s-48.03,21.5-48.03,48.03,21.5,48.03,48.03,48.03,48.03-21.5,48.03-48.03Z"/>
  <path class="st0" d="M501.13,194.49c0,53.09-43.04,96.13-96.13,96.13s-96.13-43.04-96.13-96.13,43.04-96.13,96.13-96.13,96.13,43.04,96.13,96.13h0ZM453.03,194.48c0-26.53-21.5-48.03-48.03-48.03s-48.03,21.5-48.03,48.03,21.5,48.03,48.03,48.03,48.03-21.5,48.03-48.03Z"/>
</svg>