<?xml version="1.0" encoding="UTF-8"?>
<svg id="Layer_1" xmlns="http://www.w3.org/2000/svg" version="1.1" viewBox="0 0 32 32">
  <!-- Generator: Adobe Illustrator 29.5.1, SVG Export Plug-In . SVG Version: 2.1.0 Build 141)  -->
  <defs>
    <style>
      .st0 {
        fill: #ff857f;
      }
    </style>
  </defs>
  <path class="st0" d="M23.33,1.94c-3.06.05-5.85,1.72-7.33,4.4-1.48-2.67-4.28-4.35-7.33-4.4C3.69,2.16-.18,6.36,0,11.34,0,17.4,6.39,24.02,11.74,28.5c2.47,2.07,6.06,2.07,8.53,0,5.35-4.49,11.73-11.11,11.73-17.17.19-4.98-3.68-9.18-8.66-9.4ZM18.55,26.46c-1.48,1.24-3.63,1.24-5.1,0C6.6,20.72,2.67,15.21,2.67,11.34c-.19-3.51,2.49-6.52,6-6.73,3.51.21,6.19,3.22,6,6.73,0,.74.6,1.33,1.33,1.33s1.33-.6,1.33-1.33c-.19-3.51,2.49-6.52,6-6.73,3.51.21,6.19,3.22,6,6.73,0,3.87-3.93,9.38-10.78,15.12h0Z"/>
</svg>