<?xml version="1.0" encoding="UTF-8"?>
<svg id="Layer_1" xmlns="http://www.w3.org/2000/svg" version="1.1" viewBox="0 0 43.01 14">
  <!-- Generator: Adobe Illustrator 29.5.1, SVG Export Plug-In . SVG Version: 2.1.0 Build 141)  -->
  <defs>
    <style>
      .st0 {
        fill: #1434cb;
      }
    </style>
  </defs>
  <path class="st0" d="M16.34.24l-5.63,13.54h-3.67L4.26,2.97c-.17-.67-.31-.91-.83-1.19-.84-.46-2.21-.89-3.43-1.15L.08.24h5.91c.75,0,1.43.51,1.6,1.38l1.46,7.84L12.69.24h3.65ZM30.73,9.36c.01-3.57-4.9-3.77-4.87-5.37.01-.49.47-1,1.47-1.13.5-.07,1.87-.12,3.43.61l.61-2.87c-.84-.31-1.91-.6-3.25-.6-3.43,0-5.85,1.84-5.87,4.48-.02,1.95,1.73,3.04,3.04,3.68,1.35.66,1.81,1.09,1.8,1.68,0,.91-1.08,1.31-2.08,1.33-1.75.03-2.76-.48-3.57-.86l-.63,2.97c.81.38,2.31.7,3.86.72,3.65,0,6.04-1.82,6.05-4.63h.01ZM39.8,13.78h3.21L40.2.24h-2.97c-.67,0-1.23.39-1.48.99l-5.21,12.55h3.65l.72-2.02h4.46l.42,2.02h.01ZM35.92,8.98l1.83-5.08,1.05,5.08h-2.88ZM21.3.24l-2.87,13.54h-3.47L17.83.24h3.47Z"/>
</svg>