<svg width="44" height="15" viewBox="0 0 44 15" fill="none" xmlns="http://www.w3.org/2000/svg">
<path d="M16.8265 1.03944L11.1969 14.5802H7.52397L4.75362 3.77406C4.58543 3.10847 4.43918 2.86463 3.92766 2.58421C3.09253 2.12746 1.7134 1.69894 0.5 1.43297L0.582416 1.03944H6.49466C7.24828 1.03944 7.92575 1.54519 8.09685 2.42007L9.55996 10.2554L13.176 1.03922L16.8265 1.03944ZM31.2175 10.1593C31.2323 6.58544 26.3155 6.38856 26.3494 4.79209C26.3599 4.30622 26.8188 3.78964 27.8232 3.65778C28.3211 3.59208 29.6928 3.54196 31.2486 4.26377L31.8589 1.39233C31.0229 1.08641 29.9472 0.791992 28.6089 0.791992C25.1745 0.791992 22.7575 2.63253 22.7372 5.26803C22.715 7.21739 24.4623 8.30518 25.7787 8.95294C27.133 9.61627 27.5874 10.0425 27.5822 10.6359C27.5726 11.5442 26.5021 11.9452 25.5017 11.961C23.7553 11.9881 22.7419 11.4846 21.934 11.106L21.3043 14.0724C22.1161 14.4479 23.6146 14.7755 25.1682 14.792C28.8185 14.792 31.2063 12.9743 31.2175 10.1593ZM40.2864 14.5802H43.5L40.6949 1.03944H37.7288C37.0619 1.03944 36.4993 1.43094 36.2503 2.03286L31.0363 14.5802H34.6848L35.4091 12.5577H39.867L40.2864 14.5802ZM36.4095 9.78244L38.2383 4.69839L39.291 9.78244H36.4095ZM21.7909 1.03944L18.9178 14.5802H15.4433L18.3176 1.03944H21.7909Z" fill="#1434CB"/>
</svg>
