<?xml version="1.0" encoding="UTF-8"?>
<svg id="Layer_1" xmlns="http://www.w3.org/2000/svg" xmlns:xlink="http://www.w3.org/1999/xlink" version="1.1" viewBox="0 0 33 32">
  <!-- Generator: Adobe Illustrator 29.5.1, SVG Export Plug-In . SVG Version: 2.1.0 Build 141)  -->
  <defs>
    <style>
      .st0 {
        fill: #fff;
      }

      .st0, .st1 {
        fill-rule: evenodd;
      }

      .st1 {
        fill: url(#linear-gradient);
      }
    </style>
    <linearGradient id="linear-gradient" x1="16.5" y1="2" x2="16.5" y2="34" gradientTransform="translate(0 34) scale(1 -1)" gradientUnits="userSpaceOnUse">
      <stop offset="0" stop-color="#25cf43"/>
      <stop offset="1" stop-color="#61fd7d"/>
    </linearGradient>
  </defs>
  <path class="st1" d="M32.5,23.87c0,.17,0,.55-.01.85-.01.69-.07,1.38-.17,2.07-.11.6-.31,1.19-.58,1.74-.59,1.17-1.54,2.12-2.71,2.71-.55.27-1.14.47-1.74.58-.68.1-1.36.15-2.05.17-.29,0-.67.01-.85.01h-15.75c-.17,0-.56,0-.85-.01-.69-.01-1.38-.07-2.07-.17-.6-.11-1.19-.31-1.74-.58-1.17-.59-2.12-1.54-2.71-2.71-.27-.55-.47-1.14-.58-1.74-.1-.68-.15-1.36-.17-2.05,0-.29-.01-.67-.01-.85v-15.76c0-.17,0-.55.01-.85.01-.69.07-1.38.17-2.07.11-.6.31-1.19.58-1.74.59-1.17,1.54-2.12,2.71-2.71.55-.27,1.14-.47,1.74-.58C6.4.08,7.08.03,7.77.01c.29,0,.67-.01.85-.01h15.75c.17,0,.56,0,.85.01.69.01,1.38.07,2.07.17.6.11,1.19.31,1.74.58,1.17.59,2.12,1.54,2.71,2.71.27.55.47,1.14.58,1.74.1.68.15,1.36.17,2.05,0,.29.01.67.01.85v15.76Z"/>
  <path class="st0" d="M24.92,7.67c-1.95-1.96-4.56-3.14-7.32-3.32-2.76-.18-5.49.64-7.69,2.33-2.2,1.68-3.71,4.11-4.25,6.82-.54,2.71-.08,5.53,1.31,7.93l-1.62,5.9,6.04-1.58c1.67.91,3.55,1.39,5.45,1.39,2.25,0,4.46-.67,6.33-1.92,1.87-1.25,3.34-3.03,4.2-5.11.86-2.08,1.09-4.37.65-6.58-.44-2.21-1.52-4.24-3.12-5.84h0ZM16.85,25.21c-1.7,0-3.37-.46-4.83-1.33l-.35-.2-3.59.94.96-3.48-.23-.36c-1.12-1.78-1.61-3.88-1.41-5.97.21-2.09,1.1-4.05,2.54-5.58,1.44-1.53,3.35-2.53,5.43-2.85,2.08-.32,4.2.05,6.04,1.07,1.84,1.02,3.29,2.61,4.12,4.54s1,4.08.47,6.12c-.52,2.03-1.71,3.84-3.37,5.12-1.66,1.29-3.7,1.99-5.8,1.99ZM22.05,18.11c-.28-.14-1.69-.83-1.95-.93-.26-.09-.45-.14-.64.14-.19.28-.75.93-.9,1.12-.15.19-.33.21-.62.07-.84-.33-1.61-.81-2.29-1.41-.62-.58-1.16-1.24-1.59-1.97-.17-.29-.02-.44.12-.58.14-.14.28-.33.43-.5.12-.14.21-.3.28-.48.04-.08.05-.17.05-.25,0-.09-.03-.17-.08-.25-.07-.14-.64-1.54-.88-2.12-.24-.57-.47-.48-.64-.5-.18-.02-.36,0-.55,0-.14,0-.29.04-.42.1-.13.06-.25.15-.34.26-.32.31-.58.67-.75,1.08-.17.41-.26.85-.25,1.29,0,1.4,1.02,2.75,1.16,2.95.14.19,2.01,3.07,4.87,4.3.53.23,1.07.43,1.63.6.58.18,1.2.21,1.79.11.55-.08,1.69-.69,1.92-1.35.24-.66.25-1.24.17-1.35-.08-.11-.26-.21-.55-.34h0Z"/>
</svg>