<?xml version="1.0" encoding="UTF-8"?>
<svg id="Layer_1" xmlns="http://www.w3.org/2000/svg" version="1.1" viewBox="0 0 24 24">
  <!-- Generator: Adobe Illustrator 29.5.1, SVG Export Plug-In . SVG Version: 2.1.0 Build 141)  -->
  <defs>
    <style>
      .st0 {
        fill: #ac5fe0;
      }
    </style>
  </defs>
  <path class="st0" d="M21,23c0,.55-.45,1-1,1s-1-.45-1-1,.45-1,1-1,1,.45,1,1ZM23,19c-.55,0-1,.45-1,1s.45,1,1,1,1-.45,1-1-.45-1-1-1ZM20,19c-.55,0-1,.45-1,1s.45,1,1,1,1-.45,1-1-.45-1-1-1ZM18,15v1c0,1.1-.9,2-2,2h-1c-1.1,0-2-.9-2-2v-1c0-1.1.9-2,2-2h1c1.1,0,2,.9,2,2ZM16,16v-1h-1v1h1ZM18,21v1c0,1.1-.9,2-2,2h-1c-1.1,0-2-.9-2-2v-1c0-1.1.9-2,2-2h1c1.1,0,2,.9,2,2ZM16,22v-1h-1v1h1ZM24,15v1c0,1.1-.9,2-2,2h-1c-1.1,0-2-.9-2-2v-1c0-1.1.9-2,2-2h1c1.1,0,2,.9,2,2ZM22,16v-1h-1v1h1ZM10,5c-.83,0-1.5.67-1.5,1.5s.67,1.5,1.5,1.5,1.5-.67,1.5-1.5-.67-1.5-1.5-1.5ZM9,9c-.55,0-1,.45-1,1s.45,1,1,1v3c0,.55.45,1,1,1s1-.45,1-1v-3c0-1.1-.9-2-2-2ZM20,10C20,4.49,15.51,0,10,0S0,4.49,0,10v6c0,2.21,1.79,4,4,4h6c.55,0,1-.45,1-1s-.45-1-1-1h-6c-1.1,0-2-.9-2-2v-6C2,5.59,5.59,2,10,2s8,3.59,8,8c0,.55.45,1,1,1s1-.45,1-1Z"/>
</svg>