<?xml version="1.0" encoding="UTF-8"?>
<svg id="Layer_1" xmlns="http://www.w3.org/2000/svg" version="1.1" viewBox="0 0 32 32">
  <!-- Generator: Adobe Illustrator 29.5.1, SVG Export Plug-In . SVG Version: 2.1.0 Build 141)  -->
  <defs>
    <style>
      .st0 {
        fill: #5e6366;
      }
    </style>
  </defs>
  <path class="st0" d="M22.6,22.27c.23-1.18-.14-2.39-.99-3.24l-8.64-8.64c-.85-.85-2.06-1.22-3.24-.99-1.18.23-2.16,1.03-2.63,2.14L.24,27.84c-.47,1.13-.22,2.41.64,3.28.57.57,1.34.88,2.11.88.39,0,.79-.08,1.17-.24l16.3-6.86c1.11-.47,1.91-1.45,2.14-2.63h0ZM3.12,29.3c-.13.06-.25.03-.36-.07-.1-.1-.13-.22-.07-.36l4.63-11,6.79,6.79-11,4.63ZM19.98,21.76c-.03.15-.14.51-.56.68l-2.65,1.12-8.33-8.33,1.12-2.65c.17-.41.54-.53.68-.55.04,0,.11-.02.18-.02.18,0,.43.05.66.27l8.64,8.64c.32.32.29.7.26.84ZM18.3.5c.46-.57,1.29-.67,1.86-.22.11.09,2.73,2.2,2.5,5.8-.09,1.41-.63,2.77-1.6,4.05-.26.35-.66.53-1.06.53-.28,0-.56-.09-.81-.27-.59-.45-.7-1.28-.26-1.87.65-.86,1.01-1.74,1.06-2.61.14-2.17-1.44-3.49-1.5-3.54-.57-.46-.66-1.3-.2-1.87h0ZM31.44,18.42c-.23.16-.5.24-.77.24-.41,0-.82-.19-1.08-.55-.04-.05-.61-.78-1.59-.78-.46,0-.86.13-1.2.39-.59.45-1.42.33-1.87-.26-.44-.59-.33-1.42.26-1.87.8-.61,1.78-.93,2.81-.93,1.91,0,3.26,1.19,3.76,1.9.42.6.28,1.43-.32,1.86h0ZM28,2c0-1.1.9-2,2-2s2,.9,2,2-.9,2-2,2-2-.9-2-2ZM25.33,8.67c0-1.1.9-2,2-2s2,.9,2,2-.9,2-2,2-2-.9-2-2ZM10.67,3.33c0-1.1.9-2,2-2s2,.9,2,2-.9,2-2,2-2-.9-2-2ZM30.67,24.67c0,1.1-.9,2-2,2s-2-.9-2-2,.9-2,2-2,2,.9,2,2ZM1.33,4.67c0-1.1.9-2,2-2s2,.9,2,2-.9,2-2,2-2-.9-2-2ZM24,30c0,1.1-.9,2-2,2s-2-.9-2-2,.9-2,2-2,2,.9,2,2Z"/>
</svg>