<?xml version="1.0" encoding="UTF-8"?>
<svg id="Layer_1" xmlns="http://www.w3.org/2000/svg" version="1.1" viewBox="0 0 32 32">
  <!-- Generator: Adobe Illustrator 29.5.1, SVG Export Plug-In . SVG Version: 2.1.0 Build 141)  -->
  <defs>
    <style>
      .st0 {
        fill: #ac5fe0;
      }
    </style>
  </defs>
  <path class="st0" d="M32,10.65c0,1.41-.35,2.93-1.01,4.52-.21.51-.71.81-1.23.81-.17,0-.35-.04-.52-.11-.68-.29-1-1.07-.71-1.75.53-1.25.8-2.43.8-3.48,0-3.61-2.75-6.67-6-6.67-2.97,0-4.68,1.2-5.83,2.25l-5.09,4.73c-.47.47-.59,1.27-.21,1.77.24.33.59.53.99.56.4.04.77-.11,1.05-.39l5.56-5.32c.53-.51,1.37-.49,1.88.04.51.53.49,1.37-.04,1.88l-1.65,1.57,6.33,5.56c1.48,1.31,1.85,3.48.85,5.08-.61.99-1.61,1.64-2.76,1.81-.08,0-.15.01-.23.03,0,.68-.19,1.36-.56,1.97-.61.99-1.61,1.64-2.76,1.81-.25.04-.49.05-.73.04-.07.51-.24,1-.53,1.45-.61.99-1.6,1.85-3.32,1.85-.95,0-1.85-.33-2.57-.97l-4.13-3.71C5.2,22.06,0,16.19,0,10.65,0,5.5,3.89,1.31,8.67,1.31c1.11,0,2.17.23,3.2.67.68.29.99,1.08.69,1.76-.29.68-1.08.99-1.76.69-.68-.29-1.4-.44-2.13-.44-3.25,0-6,3.05-6,6.67s3.08,8.32,8.68,13.37l4.12,3.69c.27.23.63.33.99.28s.68-.25.88-.59c.31-.49.16-1.23-.35-1.67l-4.28-4.07c-.53-.51-.56-1.35-.05-1.88.51-.53,1.35-.56,1.88-.05l4.96,4.68c.24.21.61.32.96.27.36-.05.68-.27.88-.59.31-.49.16-1.23-.35-1.67l-4.75-4.29c-.55-.49-.59-1.33-.09-1.88.49-.55,1.33-.59,1.88-.11l4.99,4.44c.27.24.63.35.99.29.36-.05.68-.27.88-.59.31-.49.16-1.23-.35-1.67l-6.51-5.71-1.96,1.88c-.81.81-1.95,1.23-3.13,1.13-1.17-.09-2.24-.71-2.93-1.67-1.13-1.56-.89-3.83.53-5.25l5.15-4.77c1.39-1.28,3.68-2.96,7.63-2.96,4.77,0,8.67,4.19,8.67,9.33h.03l-.02.05Z"/>
</svg>