<?xml version="1.0" encoding="UTF-8"?>
<svg id="Layer_1" xmlns="http://www.w3.org/2000/svg" version="1.1" viewBox="0 0 32 32">
  <!-- Generator: Adobe Illustrator 29.5.1, SVG Export Plug-In . SVG Version: 2.1.0 Build 141)  -->
  <defs>
    <style>
      .st0 {
        fill: #ac5fe0;
      }
    </style>
  </defs>
  <path class="st0" d="M29.49,30.36c-.43-3.29-1.1-5.42-1.13-5.51-.15-.47-.53-.83-1.01-.96-.03,0-.13-.03-.29-.07,1.27-4.61,2.45-13.82-5.33-20.67C18.22.03,14.13,0,13.96,0c-.72,0-1.34.53-1.44,1.25-.31,2.17-1.07,2.96-3.67,3.84l-2.75.93c-.28.09-.52.27-.7.5-1.3,1.73-1.3,5.67,0,7.4.27.37.71.58,1.16.58h6.21c-.55,1.4-1.52,2.33-1.98,2.71-1.07.13-2.11.31-3.11.53-.41.09-.76.35-.96.71-.05.08-1.12,2.04-1.12,4.61,0,.14,0,.39.01.68-.33.08-.53.13-.57.14-.48.13-.86.49-1.01.97-.03.09-.7,2.23-1.12,5.51-.05.41.07.83.35,1.15.28.31.67.49,1.09.49h23.69c.42,0,.82-.18,1.09-.49s.4-.73.35-1.15h0ZM8.52,23.06c0-1.1.28-2.05.5-2.62.81-.16,1.65-.29,2.51-.38.23-.03.45-.11.65-.24.14-.1,3.51-2.4,3.86-6.65.03-.4-.1-.81-.38-1.11-.28-.3-.66-.47-1.07-.47h-7.11c-.22-.87-.19-2.26.08-3l2.22-.75c2.65-.9,4.51-2.06,5.32-4.79,1.17.22,3.04.79,4.72,2.27,6.68,5.89,5.51,13.96,4.4,17.89-2.05-.36-4.9-.72-8.01-.72-2.94,0-5.67.33-7.68.67v-.1h0ZM6.06,29.09c.19-1.12.4-2.01.55-2.59,1.59-.36,5.39-1.1,9.6-1.1s8.01.74,9.6,1.1c.15.58.36,1.47.55,2.59H6.06Z"/>
</svg>