<?xml version="1.0" encoding="UTF-8"?>
<svg id="Layer_1" xmlns="http://www.w3.org/2000/svg" version="1.1" viewBox="0 0 512 512">
  <!-- Generator: Adobe Illustrator 29.5.1, SVG Export Plug-In . SVG Version: 2.1.0 Build 141)  -->
  <defs>
    <style>
      .st0 {
        fill: #ac5fe0;
      }
    </style>
  </defs>
  <path class="st0" d="M448,135.49V64c0-10.6-8.59-19.2-19.2-19.2s-19.2,8.6-19.2,19.2v45.42l-99.9-67.41c-32.62-22.01-74.78-22.01-107.41,0l-134.4,90.7c-26.48,17.87-42.3,47.62-42.3,79.59v178.1c0,52.94,43.06,96,96,96h57.6c10.62,0,19.2-8.6,19.2-19.2v-153.6c0-10.58,8.6-19.2,19.2-19.2h76.8c10.6,0,19.2,8.62,19.2,19.2v153.6c0,10.6,8.59,19.2,19.2,19.2h57.6c52.94,0,96-43.07,96-96v-178.1c0-30.36-14.28-58.72-38.4-76.8h0ZM448,390.39c0,31.76-25.84,57.6-57.6,57.6h-38.4v-134.4c0-31.76-25.84-57.6-57.6-57.6h-76.8c-31.76,0-57.6,25.84-57.6,57.6v134.4h-38.4c-31.76,0-57.6-25.84-57.6-57.6v-178.1c0-19.18,9.49-37.04,25.38-47.75l134.41-90.69c19.58-13.21,44.85-13.21,64.41,0l134.4,90.7c15.89,10.71,25.38,28.57,25.38,47.75v178.1h.03Z"/>
</svg>