<?xml version="1.0" encoding="UTF-8"?>
<svg id="Layer_1" xmlns="http://www.w3.org/2000/svg" version="1.1" viewBox="0 0 512 512">
  <!-- Generator: Adobe Illustrator 29.5.1, SVG Export Plug-In . SVG Version: 2.1.0 Build 141)  -->
  <defs>
    <style>
      .st0 {
        fill: #5e6366;
      }
    </style>
  </defs>
  <path class="st0" d="M448.53,135.16V63.47c0-10.63-8.61-19.25-19.25-19.25s-19.25,8.63-19.25,19.25v45.55l-100.18-67.6c-32.72-22.07-74.99-22.07-107.7,0l-134.77,90.95c-26.55,17.92-42.42,47.75-42.42,79.81v178.6c0,53.09,43.18,96.27,96.27,96.27h57.76c10.65,0,19.25-8.63,19.25-19.25v-154.03c0-10.6,8.63-19.25,19.25-19.25h77.01c10.63,0,19.25,8.65,19.25,19.25v154.03c0,10.63,8.61,19.25,19.25,19.25h57.76c53.09,0,96.27-43.18,96.27-96.27v-178.6c0-30.44-14.32-58.88-38.51-77.01h0ZM448.53,390.77c0,31.85-25.91,57.76-57.76,57.76h-38.51v-134.77c0-31.85-25.91-57.76-57.76-57.76h-77.01c-31.85,0-57.76,25.91-57.76,57.76v134.77h-38.51c-31.85,0-57.76-25.91-57.76-57.76v-178.6c0-19.23,9.51-37.14,25.45-47.89l134.78-90.94c19.64-13.25,44.97-13.25,64.59,0l134.77,90.95c15.94,10.74,25.45,28.65,25.45,47.89v178.6h.03Z"/>
</svg>